<?xml version="1.0" encoding="UTF-8"?>
<svg xmlns="http://www.w3.org/2000/svg" width="720" height="420" viewBox="0 0 720 420" fill="none">
  <g clip-path="url(#clip0_4654_21879)">
    <rect x="191" y="11" width="398" height="398" rx="199" fill="#9C99F5"></rect>
    <path d="M333.919 386.676H422.705L391.884 787.341C390.19 809.368 371.822 826.377 349.73 826.377H300.096L333.919 386.676Z" fill="#262647"></path>
    <path d="M262.045 386.676H350.831L270.501 826.377H181.715C181.715 826.377 177.487 676.287 219.766 606.527C262.045 536.766 262.045 386.676 262.045 386.676Z" fill="#262647"></path>
    <path d="M443.016 117.137L443.016 179.781L466.507 179.781L466.507 140.629C466.507 127.655 455.99 117.137 443.016 117.137Z" fill="#D69763"></path>
    <path d="M399.947 116.934C414.352 138.492 409.8 161.528 403.163 179.939C396.538 198.35 387.828 212.228 373.423 220.324C366.226 224.371 357.601 226.973 347.261 229.269C341.282 230.596 334.729 231.821 327.546 233.164C322.306 234.143 316.731 235.186 310.8 236.376C307.849 236.961 304.811 237.583 301.71 238.217C289.988 240.614 277.376 243.194 265.292 244.703C250.012 246.611 235.577 246.807 224.858 242.759C203.421 234.664 196.86 209.592 206.702 191.32C211.661 182.207 220.704 174.782 231.188 166.935C232.843 165.696 234.534 164.447 236.251 163.179C245.406 156.414 255.287 149.114 264.313 140.018C269.673 134.629 274.73 128.603 279.691 122.507C280.848 121.084 282.001 119.658 283.15 118.235C286.928 113.559 290.677 108.917 294.49 104.566C304.436 93.2152 314.818 83.8364 327.279 80.9452C339.734 78.054 354.302 81.6505 367.556 88.6703C380.81 95.6901 392.749 106.133 399.947 116.934Z" fill="#030A0F" stroke="#003621" stroke-width="0.00105689"></path>
    <path d="M249.344 143.002C257.96 142.365 266.158 136.224 269.191 128.134C272.224 120.043 280.422 113.902 289.039 113.266C297.655 112.629 305.853 106.488 308.886 98.3979" stroke="#030A0F" stroke-width="2.02666" stroke-miterlimit="10" stroke-linecap="round" stroke-linejoin="round"></path>
    <path d="M446.319 177.651V177.648L509.738 177.648V207.244C509.738 264.812 471.385 313.422 418.837 328.918L423.067 386.931H262.407L272.43 295.29L246.761 226.837C238.987 206.107 254.311 183.994 276.451 183.994H284.603L284.603 183.992H349.307C371.082 183.992 390.437 195.006 401.876 211.924C401.91 211.074 401.927 210.219 401.927 209.36V177.651L446.319 177.651Z" fill="white"></path>
    <path d="M380.374 114.242V146.499C380.374 159.473 369.856 169.991 356.882 169.991H352.967V189.567H352.93C352.43 196.137 346.941 201.313 340.243 201.313C333.544 201.313 328.055 196.137 327.555 189.567H327.518L327.518 138.669C323.193 138.669 319.688 135.163 319.688 130.838C319.688 126.514 323.193 123.008 327.518 123.008H329.807C336.888 123.008 343.451 119.292 347.094 113.22L350.293 107.889C351.952 105.123 354.94 103.431 358.165 103.431C360.7 103.431 362.755 101.376 362.755 98.8412V97.5586L365.066 101.024C366.068 102.528 367.756 103.431 369.563 103.431C375.534 103.431 380.374 108.272 380.374 114.242Z" fill="#D69763"></path>
    <path d="M327.519 134.752C325.356 134.752 323.604 132.999 323.604 130.837C323.604 128.675 325.356 126.922 327.519 126.922" stroke="#B86342" stroke-width="1.95762" stroke-linecap="round" stroke-linejoin="round"></path>
    <path fill-rule="evenodd" clip-rule="evenodd" d="M521.32 111.262L399.947 117.135V117.135C399.947 117.135 399.947 117.135 399.947 117.135C393.46 117.135 388.201 122.393 388.201 128.88C388.201 135.367 393.46 140.626 399.947 140.626C399.947 140.626 399.947 140.626 399.948 140.626L521.32 146.499V111.262Z" fill="#FFDE00"></path>
    <circle cx="521.322" cy="128.88" r="17.6186" fill="#262647"></circle>
    <path fill-rule="evenodd" clip-rule="evenodd" d="M484.126 111.262L362.754 117.135V117.135C362.754 117.135 362.754 117.135 362.754 117.135C356.267 117.135 351.008 122.393 351.008 128.88C351.008 135.367 356.267 140.626 362.754 140.626C362.754 140.626 362.754 140.626 362.754 140.626L484.126 146.499V111.262Z" fill="#FFDE00"></path>
    <circle cx="484.124" cy="128.88" r="17.6186" fill="#262647"></circle>
    <path d="M401.904 115.18L401.904 177.824L425.396 177.824L425.396 138.672C425.396 125.698 414.878 115.18 401.904 115.18Z" fill="#D69763"></path>
  </g>
  <defs>
    <clipPath id="clip0_4654_21879">
      <rect x="191" y="11" width="398" height="398" rx="199" fill="white"></rect>
    </clipPath>
  </defs>
</svg>
