<?xml version="1.0" encoding="UTF-8"?>
<svg xmlns="http://www.w3.org/2000/svg" width="720" height="500" viewBox="0 0 720 500" fill="none">
  <path d="M17.5 233C17.5 349.532 111.862 444 228.263 444L492.737 444C609.138 444 703.5 349.532 703.5 233C703.5 116.468 609.138 22 492.737 22L228.263 22C111.862 22 17.5 116.468 17.5 233Z" fill="#D7F9D3"></path>
  <rect x="57.5" y="59" width="461.631" height="184.652" rx="6.2504" fill="white"></rect>
  <path d="M260.744 189.928L264.939 192.724C265.072 192.812 265.245 192.812 265.377 192.724L269.572 189.928C269.844 189.746 270.212 189.82 270.394 190.092C270.576 190.364 270.502 190.733 270.23 190.914L265.706 193.93C265.374 194.151 264.942 194.151 264.61 193.93L260.087 190.914C259.814 190.733 259.741 190.364 259.922 190.092C260.104 189.82 260.472 189.746 260.744 189.928Z" fill="#192435"></path>
  <path d="M257.254 188.84C257.254 187.53 258.316 186.469 259.625 186.469H270.691C272.001 186.469 273.062 187.53 273.062 188.84V196.744C273.062 198.054 272.001 199.116 270.691 199.116H259.625C258.316 199.116 257.254 198.054 257.254 196.744V188.84ZM259.625 187.654C258.97 187.654 258.44 188.185 258.44 188.84V196.744C258.44 197.399 258.97 197.93 259.625 197.93H270.691C271.346 197.93 271.877 197.399 271.877 196.744V188.84C271.877 188.185 271.346 187.654 270.691 187.654H259.625Z" fill="#192435"></path>
  <path d="M299.619 163.242H301.148V160.161H304.23V158.631H301.148V155.555H299.619V158.631H296.543V160.161H299.619V163.242Z" fill="#317AE2"></path>
  <path d="M311.254 153.554H309.543L306.638 155.453V157.136L309.423 155.316H309.492V165.198H311.254V153.554Z" fill="#317AE2"></path>
  <path d="M314.404 165.198H322.068V163.691H316.826V163.606L319.14 161.184C321.272 159.029 321.88 158 321.88 156.698C321.88 154.827 320.357 153.395 318.162 153.395C315.985 153.395 314.393 154.805 314.393 156.931H316.07C316.064 155.68 316.871 154.862 318.128 154.862C319.311 154.862 320.209 155.589 320.209 156.749C320.209 157.778 319.595 158.517 318.344 159.842L314.404 163.924V165.198Z" fill="#317AE2"></path>
  <path d="M328.277 165.357C330.653 165.357 332.399 163.936 332.393 162.003C332.399 160.53 331.506 159.473 329.96 159.234V159.143C331.176 158.83 331.967 157.875 331.961 156.567C331.967 154.856 330.562 153.395 328.322 153.395C326.184 153.395 324.467 154.685 324.41 156.579H326.11C326.15 155.51 327.157 154.862 328.299 154.862C329.488 154.862 330.267 155.584 330.261 156.658C330.267 157.784 329.363 158.523 328.072 158.523H327.088V159.956H328.072C329.687 159.956 330.619 160.775 330.619 161.946C330.619 163.077 329.635 163.845 328.265 163.845C327.003 163.845 326.019 163.197 325.951 162.162H324.166C324.24 164.061 325.923 165.357 328.277 165.357Z" fill="#317AE2"></path>
  <path d="M338.535 162.924H344.055V165.198H345.733V162.924H347.273V161.434H345.733V153.554H343.566L338.535 161.502V162.924ZM344.067 161.434H340.377V161.343L343.976 155.646H344.067V161.434Z" fill="#317AE2"></path>
  <path d="M353.098 165.357C355.441 165.357 357.112 163.703 357.106 161.434C357.112 159.183 355.543 157.545 353.422 157.545C352.558 157.545 351.756 157.875 351.301 158.318H351.233L351.603 155.061H356.544V153.554H350.142L349.488 159.421L351.097 159.66C351.535 159.268 352.319 159.001 353.024 159.001C354.406 159.012 355.406 160.047 355.406 161.468C355.406 162.867 354.434 163.879 353.098 163.879C351.972 163.879 351.08 163.162 350.989 162.162H349.283C349.351 164.015 350.96 165.357 353.098 165.357Z" fill="#317AE2"></path>
  <path d="M363.248 165.357C365.682 165.38 367.296 163.629 367.291 161.394C367.296 159.166 365.676 157.568 363.658 157.568C362.429 157.568 361.366 158.159 360.769 159.143H360.684C360.69 156.499 361.69 154.93 363.396 154.93C364.516 154.93 365.221 155.612 365.46 156.579H367.194C366.927 154.737 365.477 153.395 363.396 153.395C360.69 153.395 359.001 155.72 359.001 159.768C358.995 164.055 361.179 165.34 363.248 165.357ZM363.242 163.879C361.889 163.879 360.9 162.742 360.9 161.434C360.906 160.132 361.941 158.995 363.282 158.995C364.613 158.995 365.591 160.07 365.585 161.417C365.591 162.793 364.573 163.879 363.242 163.879Z" fill="#317AE2"></path>
  <path d="M373.991 165.198H375.827L380.893 155.112V153.554H373.195V155.061H379.074V155.146L373.991 165.198Z" fill="#317AE2"></path>
  <path d="M386.57 165.357C388.992 165.357 390.703 163.981 390.715 162.094C390.703 160.627 389.674 159.393 388.372 159.16V159.092C389.504 158.819 390.271 157.756 390.283 156.499C390.271 154.719 388.702 153.395 386.57 153.395C384.415 153.395 382.846 154.719 382.857 156.499C382.846 157.75 383.614 158.819 384.768 159.092V159.16C383.443 159.393 382.414 160.627 382.425 162.094C382.414 163.981 384.125 165.357 386.57 165.357ZM386.57 163.919C385.115 163.919 384.194 163.145 384.205 161.98C384.194 160.769 385.194 159.905 386.57 159.905C387.923 159.905 388.924 160.769 388.935 161.98C388.924 163.145 388.009 163.919 386.57 163.919ZM386.57 158.5C385.393 158.5 384.557 157.756 384.569 156.647C384.557 155.555 385.365 154.833 386.57 154.833C387.753 154.833 388.56 155.555 388.571 156.647C388.56 157.756 387.73 158.5 386.57 158.5Z" fill="#317AE2"></path>
  <path d="M396.624 153.395C394.179 153.372 392.581 155.129 392.581 157.335C392.587 159.558 394.196 161.161 396.214 161.161C397.448 161.161 398.505 160.558 399.102 159.581H399.193C399.188 162.258 398.181 163.822 396.476 163.822C395.361 163.822 394.645 163.14 394.418 162.145H392.683C392.939 164.027 394.395 165.357 396.476 165.357C399.182 165.357 400.876 163.032 400.876 158.955C400.871 154.702 398.699 153.412 396.624 153.395ZM396.629 154.873C397.977 154.873 398.972 156.016 398.972 157.295C398.977 158.591 397.925 159.728 396.595 159.728C395.259 159.728 394.292 158.66 394.287 157.312C394.287 155.959 395.293 154.873 396.629 154.873Z" fill="#317AE2"></path>
  <path d="M261.639 162.276C262.83 163.469 264.753 165.156 266.728 166.125C268.737 167.112 270.333 167.164 271.474 165.996L271.479 165.991L271.484 165.986C272.053 165.417 272.348 165.04 272.444 164.76C272.479 164.66 272.473 164.61 272.463 164.573C272.451 164.526 272.402 164.396 272.194 164.188C271.861 163.855 271.194 163.383 270.527 162.956C270.153 162.715 269.772 162.483 269.387 162.259C269.302 162.21 269.224 162.138 269.12 162.144C269.048 162.149 268.942 162.18 268.827 162.262L268.811 162.273L267.635 163.057C267.362 163.256 267.009 163.429 266.581 163.429C266.189 163.429 265.886 163.272 265.808 163.232C265.76 163.207 265.714 163.178 265.668 163.152C264.905 162.643 264.132 162.042 263.357 161.267C262.413 160.322 261.811 159.462 261.474 158.956L261.4 158.828C261.398 158.825 261.396 158.821 261.394 158.816C261.353 158.737 261.196 158.434 261.196 158.042C261.196 157.615 261.369 157.261 261.568 156.988L261.868 156.537C261.876 156.525 261.885 156.513 261.893 156.5C262.013 156.319 262.193 156.048 262.4 155.82C262.464 155.717 262.478 155.646 262.481 155.608C262.483 155.573 262.481 155.501 262.402 155.375C262.152 154.975 261.938 154.556 261.674 154.15C261.252 153.502 260.777 152.845 260.438 152.506L260.406 152.474L260.377 152.44C260.254 152.296 260.174 152.263 260.144 152.254C259.538 152.059 258.985 152.857 258.63 153.227C257.674 154.222 257.607 155.698 258.411 157.613C259.195 159.477 260.608 161.282 261.623 162.261L261.639 162.276ZM263.326 156.563C263.326 156.563 263.011 156.957 262.853 157.194L262.537 157.668C262.301 157.983 262.38 158.141 262.459 158.299C262.774 158.773 263.326 159.562 264.194 160.43C264.904 161.14 265.614 161.693 266.324 162.166C266.482 162.245 266.64 162.324 266.956 162.088L268.139 161.298C268.691 160.904 269.401 160.825 269.954 161.219C269.954 161.219 272.163 162.482 273.031 163.35C274.293 164.613 273.425 165.718 272.321 166.823C268.928 170.296 263.247 165.56 260.802 163.114C258.593 160.983 254.727 155.379 257.804 152.379C258.514 151.59 259.066 151.196 259.618 151.117C260.249 150.959 260.802 151.117 261.275 151.669C262.143 152.537 263.405 154.668 263.405 154.747C263.8 155.379 263.721 156.01 263.326 156.563Z" fill="#192435"></path>
  <path d="M296.599 123.855V121.672L306.407 107.442H296.543V104.503H310.704V106.686L300.905 120.916H310.76V123.855H296.599Z" fill="#262647"></path>
  <path d="M318.093 124.148C317.184 124.148 316.365 123.984 315.636 123.657C314.914 123.323 314.341 122.831 313.917 122.183C313.5 121.534 313.292 120.734 313.292 119.782C313.292 118.964 313.441 118.286 313.74 117.751C314.039 117.215 314.447 116.787 314.964 116.466C315.481 116.144 316.063 115.902 316.71 115.738C317.364 115.568 318.04 115.445 318.737 115.37C319.578 115.281 320.26 115.203 320.783 115.133C321.306 115.058 321.686 114.944 321.923 114.793C322.166 114.636 322.287 114.393 322.287 114.066V114.009C322.287 113.297 322.078 112.746 321.661 112.355C321.244 111.965 320.643 111.769 319.858 111.769C319.03 111.769 318.373 111.952 317.887 112.317C317.408 112.683 317.084 113.114 316.916 113.612L313.759 113.158C314.008 112.277 314.419 111.539 314.992 110.947C315.565 110.349 316.265 109.902 317.093 109.606C317.922 109.303 318.837 109.152 319.84 109.152C320.531 109.152 321.219 109.234 321.904 109.398C322.589 109.561 323.215 109.832 323.782 110.21C324.348 110.582 324.803 111.089 325.145 111.732C325.494 112.374 325.669 113.177 325.669 114.141V123.855H322.418V121.861H322.306C322.1 122.264 321.811 122.642 321.437 122.995C321.07 123.342 320.606 123.622 320.045 123.836C319.491 124.044 318.84 124.148 318.093 124.148ZM318.971 121.635C319.65 121.635 320.238 121.499 320.736 121.228C321.235 120.951 321.618 120.586 321.885 120.132C322.159 119.679 322.296 119.184 322.296 118.649V116.938C322.191 117.026 322.01 117.108 321.755 117.184C321.506 117.259 321.225 117.326 320.914 117.382C320.603 117.439 320.294 117.489 319.989 117.534C319.684 117.578 319.419 117.615 319.195 117.647C318.691 117.716 318.239 117.83 317.841 117.987C317.442 118.145 317.128 118.365 316.897 118.649C316.667 118.926 316.552 119.285 316.552 119.726C316.552 120.356 316.779 120.831 317.234 121.153C317.688 121.474 318.267 121.635 318.971 121.635Z" fill="#262647"></path>
  <path d="M335.327 124.139C333.895 124.139 332.665 123.82 331.638 123.184C330.616 122.548 329.828 121.669 329.274 120.548C328.726 119.42 328.452 118.123 328.452 116.655C328.452 115.181 328.732 113.88 329.293 112.752C329.853 111.618 330.644 110.736 331.666 110.106C332.693 109.47 333.907 109.152 335.309 109.152C336.473 109.152 337.504 109.369 338.401 109.804C339.304 110.232 340.023 110.84 340.558 111.628C341.094 112.409 341.399 113.322 341.474 114.368H338.242C338.111 113.669 337.8 113.086 337.308 112.62C336.822 112.147 336.171 111.911 335.355 111.911C334.664 111.911 334.057 112.1 333.534 112.478C333.011 112.85 332.603 113.385 332.31 114.085C332.024 114.784 331.88 115.622 331.88 116.598C331.88 117.587 332.024 118.438 332.31 119.149C332.597 119.855 332.998 120.4 333.515 120.784C334.038 121.162 334.652 121.351 335.355 121.351C335.854 121.351 336.299 121.257 336.691 121.068C337.09 120.872 337.423 120.592 337.691 120.227C337.958 119.861 338.142 119.417 338.242 118.894H341.474C341.393 119.921 341.094 120.831 340.577 121.625C340.06 122.413 339.356 123.03 338.466 123.477C337.575 123.918 336.529 124.139 335.327 124.139Z" fill="#262647"></path>
  <path d="M347.632 115.351V123.855H344.25V104.503H347.557V111.807H347.725C348.062 110.988 348.582 110.343 349.285 109.87C349.995 109.391 350.898 109.152 351.994 109.152C352.991 109.152 353.859 109.363 354.6 109.785C355.341 110.207 355.914 110.824 356.319 111.637C356.73 112.45 356.936 113.442 356.936 114.614V123.855H353.554V115.143C353.554 114.166 353.305 113.407 352.807 112.866C352.315 112.317 351.624 112.043 350.733 112.043C350.135 112.043 349.6 112.176 349.126 112.44C348.659 112.699 348.292 113.073 348.024 113.565C347.763 114.056 347.632 114.651 347.632 115.351Z" fill="#262647"></path>
  <path d="M377.453 109.823C377.366 108.998 376.999 108.355 376.351 107.895C375.71 107.435 374.875 107.205 373.848 107.205C373.125 107.205 372.506 107.316 371.989 107.536C371.472 107.757 371.077 108.056 370.803 108.434C370.529 108.812 370.388 109.243 370.382 109.728C370.382 110.132 370.472 110.481 370.653 110.777C370.84 111.073 371.092 111.325 371.41 111.533C371.727 111.735 372.079 111.905 372.465 112.043C372.851 112.182 373.241 112.299 373.633 112.393L375.426 112.847C376.149 113.017 376.843 113.247 377.509 113.536C378.182 113.826 378.783 114.192 379.312 114.633C379.848 115.074 380.271 115.606 380.583 116.23C380.894 116.853 381.05 117.584 381.05 118.422C381.05 119.556 380.763 120.554 380.19 121.417C379.617 122.274 378.789 122.945 377.706 123.43C376.628 123.909 375.324 124.148 373.792 124.148C372.303 124.148 371.011 123.915 369.915 123.449C368.825 122.983 367.972 122.302 367.356 121.408C366.745 120.513 366.415 119.423 366.366 118.138H369.775C369.825 118.812 370.03 119.373 370.392 119.82C370.753 120.268 371.223 120.601 371.802 120.822C372.387 121.042 373.041 121.153 373.764 121.153C374.517 121.153 375.177 121.039 375.744 120.812C376.317 120.579 376.765 120.258 377.089 119.849C377.413 119.433 377.578 118.948 377.584 118.393C377.578 117.889 377.432 117.474 377.145 117.146C376.859 116.812 376.457 116.535 375.94 116.315C375.429 116.088 374.832 115.886 374.147 115.71L371.97 115.143C370.395 114.733 369.149 114.113 368.234 113.281C367.325 112.443 366.87 111.332 366.87 109.946C366.87 108.805 367.175 107.807 367.785 106.95C368.402 106.094 369.239 105.429 370.298 104.956C371.357 104.478 372.556 104.238 373.894 104.238C375.252 104.238 376.441 104.478 377.463 104.956C378.49 105.429 379.297 106.087 379.882 106.931C380.467 107.769 380.77 108.733 380.788 109.823H377.453Z" fill="#262647"></path>
  <path d="M386.073 124.063C385.506 124.063 385.021 123.861 384.616 123.458C384.211 123.055 384.012 122.564 384.018 121.984C384.012 121.417 384.211 120.932 384.616 120.529C385.021 120.126 385.506 119.924 386.073 119.924C386.621 119.924 387.097 120.126 387.502 120.529C387.913 120.932 388.122 121.417 388.128 121.984C388.122 122.368 388.022 122.718 387.829 123.033C387.642 123.348 387.393 123.6 387.082 123.789C386.777 123.972 386.44 124.063 386.073 124.063Z" fill="#262647"></path>
  <path d="M296.543 197.088V196.043L301.603 189.544V189.451H296.705V188.174H303.367V189.265L298.446 195.718V195.811H303.53V197.088H296.543Z" fill="#317AE2"></path>
  <path d="M308.262 197.297C307.697 197.297 307.184 197.19 306.724 196.977C306.264 196.761 305.898 196.449 305.627 196.043C305.357 195.633 305.221 195.138 305.221 194.558C305.221 194.047 305.322 193.633 305.523 193.316C305.724 192.995 305.993 192.743 306.33 192.561C306.666 192.38 307.037 192.244 307.444 192.155C307.854 192.062 308.266 191.989 308.68 191.935C309.221 191.865 309.66 191.813 309.997 191.778C310.337 191.739 310.585 191.676 310.74 191.587C310.898 191.498 310.978 191.343 310.978 191.122V191.076C310.978 190.503 310.821 190.058 310.508 189.741C310.198 189.424 309.728 189.265 309.097 189.265C308.444 189.265 307.931 189.409 307.56 189.695C307.188 189.981 306.927 190.287 306.776 190.612L305.476 190.147C305.709 189.606 306.018 189.184 306.405 188.882C306.796 188.577 307.221 188.364 307.682 188.244C308.146 188.12 308.602 188.058 309.051 188.058C309.337 188.058 309.666 188.093 310.038 188.163C310.413 188.229 310.775 188.366 311.123 188.575C311.475 188.784 311.767 189.099 311.999 189.521C312.231 189.942 312.347 190.507 312.347 191.215V197.088H310.978V195.881H310.908C310.815 196.074 310.66 196.281 310.444 196.502C310.227 196.722 309.939 196.91 309.579 197.064C309.219 197.219 308.78 197.297 308.262 197.297ZM308.471 196.066C309.012 196.066 309.469 195.96 309.84 195.747C310.215 195.534 310.498 195.26 310.687 194.923C310.881 194.587 310.978 194.233 310.978 193.861V192.608C310.92 192.678 310.792 192.741 310.595 192.799C310.401 192.854 310.177 192.902 309.921 192.944C309.67 192.983 309.424 193.018 309.185 193.049C308.949 193.076 308.757 193.099 308.61 193.119C308.254 193.165 307.921 193.24 307.612 193.345C307.306 193.445 307.059 193.598 306.869 193.803C306.683 194.004 306.591 194.279 306.591 194.627C306.591 195.103 306.767 195.463 307.119 195.707C307.475 195.946 307.925 196.066 308.471 196.066Z" fill="#317AE2"></path>
  <path d="M318.468 197.273C317.632 197.273 316.912 197.076 316.309 196.681C315.705 196.287 315.241 195.743 314.916 195.051C314.591 194.358 314.429 193.567 314.429 192.678C314.429 191.772 314.595 190.973 314.928 190.281C315.264 189.585 315.733 189.041 316.332 188.65C316.936 188.256 317.64 188.058 318.444 188.058C319.071 188.058 319.636 188.174 320.139 188.407C320.642 188.639 321.054 188.964 321.375 189.381C321.696 189.799 321.895 190.287 321.973 190.844H320.603C320.499 190.438 320.267 190.078 319.907 189.764C319.551 189.447 319.071 189.289 318.468 189.289C317.934 189.289 317.466 189.428 317.063 189.706C316.665 189.981 316.353 190.37 316.129 190.873C315.909 191.372 315.798 191.958 315.798 192.631C315.798 193.32 315.907 193.919 316.123 194.43C316.344 194.941 316.653 195.337 317.052 195.62C317.454 195.902 317.926 196.043 318.468 196.043C318.824 196.043 319.147 195.981 319.437 195.857C319.727 195.734 319.973 195.556 320.174 195.324C320.375 195.092 320.518 194.813 320.603 194.488H321.973C321.895 195.014 321.704 195.488 321.398 195.91C321.096 196.328 320.696 196.66 320.197 196.908C319.702 197.152 319.125 197.273 318.468 197.273Z" fill="#317AE2"></path>
  <path d="M325.344 191.726V197.088H323.975V185.203H325.344V189.567H325.46C325.669 189.107 325.982 188.741 326.4 188.47C326.822 188.196 327.383 188.058 328.083 188.058C328.69 188.058 329.222 188.18 329.679 188.424C330.135 188.664 330.489 189.033 330.741 189.532C330.996 190.028 331.124 190.658 331.124 191.424V197.088H329.754V191.517C329.754 190.809 329.57 190.262 329.203 189.875C328.839 189.484 328.334 189.289 327.688 189.289C327.24 189.289 326.837 189.383 326.481 189.573C326.129 189.763 325.851 190.039 325.646 190.403C325.445 190.766 325.344 191.207 325.344 191.726Z" fill="#317AE2"></path>
  <path d="M334.627 197.181C334.341 197.181 334.095 197.078 333.89 196.873C333.685 196.668 333.583 196.422 333.583 196.136C333.583 195.85 333.685 195.604 333.89 195.399C334.095 195.194 334.341 195.092 334.627 195.092C334.913 195.092 335.159 195.194 335.364 195.399C335.569 195.604 335.672 195.85 335.672 196.136C335.672 196.326 335.623 196.5 335.527 196.658C335.434 196.817 335.308 196.945 335.149 197.041C334.995 197.134 334.821 197.181 334.627 197.181Z" fill="#317AE2"></path>
  <path d="M344.443 190.171L343.213 190.519C343.135 190.314 343.021 190.115 342.87 189.921C342.723 189.724 342.522 189.561 342.267 189.434C342.011 189.306 341.684 189.242 341.286 189.242C340.741 189.242 340.286 189.368 339.922 189.619C339.563 189.867 339.383 190.182 339.383 190.565C339.383 190.906 339.506 191.175 339.754 191.372C340.002 191.569 340.388 191.734 340.915 191.865L342.238 192.19C343.035 192.383 343.628 192.679 344.019 193.078C344.41 193.473 344.605 193.981 344.605 194.604C344.605 195.115 344.458 195.571 344.164 195.974C343.874 196.376 343.468 196.693 342.946 196.925C342.423 197.157 341.816 197.273 341.124 197.273C340.214 197.273 339.462 197.076 338.866 196.681C338.27 196.287 337.893 195.71 337.735 194.952L339.034 194.627C339.158 195.107 339.392 195.467 339.737 195.707C340.085 195.946 340.539 196.066 341.1 196.066C341.739 196.066 342.245 195.931 342.621 195.66C343 195.386 343.189 195.057 343.189 194.674C343.189 194.364 343.081 194.105 342.864 193.896C342.648 193.683 342.315 193.525 341.866 193.42L340.381 193.072C339.564 192.879 338.965 192.579 338.582 192.173C338.203 191.763 338.013 191.25 338.013 190.635C338.013 190.132 338.154 189.687 338.437 189.3C338.723 188.913 339.112 188.61 339.603 188.389C340.098 188.169 340.659 188.058 341.286 188.058C342.168 188.058 342.86 188.252 343.363 188.639C343.87 189.026 344.23 189.536 344.443 190.171Z" fill="#317AE2"></path>
  <path d="M348.036 191.726V197.088H346.667V185.203H348.036V189.567H348.152C348.361 189.107 348.674 188.741 349.092 188.47C349.514 188.196 350.075 188.058 350.775 188.058C351.382 188.058 351.914 188.18 352.371 188.424C352.827 188.664 353.181 189.033 353.433 189.532C353.688 190.028 353.816 190.658 353.816 191.424V197.088H352.446V191.517C352.446 190.809 352.263 190.262 351.895 189.875C351.531 189.484 351.027 189.289 350.381 189.289C349.932 189.289 349.529 189.383 349.174 189.573C348.821 189.763 348.543 190.039 348.338 190.403C348.137 190.766 348.036 191.207 348.036 191.726Z" fill="#317AE2"></path>
  <path d="M358.944 197.297C358.379 197.297 357.867 197.19 357.406 196.977C356.946 196.761 356.58 196.449 356.31 196.043C356.039 195.633 355.903 195.138 355.903 194.558C355.903 194.047 356.004 193.633 356.205 193.316C356.406 192.995 356.675 192.743 357.012 192.561C357.348 192.38 357.72 192.244 358.126 192.155C358.536 192.062 358.948 191.989 359.362 191.935C359.904 191.865 360.343 191.813 360.679 191.778C361.02 191.739 361.267 191.676 361.422 191.587C361.581 191.498 361.66 191.343 361.66 191.122V191.076C361.66 190.503 361.503 190.058 361.19 189.741C360.88 189.424 360.41 189.265 359.78 189.265C359.126 189.265 358.613 189.409 358.242 189.695C357.871 189.981 357.609 190.287 357.459 190.612L356.159 190.147C356.391 189.606 356.7 189.184 357.087 188.882C357.478 188.577 357.903 188.364 358.364 188.244C358.828 188.12 359.285 188.058 359.733 188.058C360.02 188.058 360.348 188.093 360.72 188.163C361.095 188.229 361.457 188.366 361.805 188.575C362.157 188.784 362.449 189.099 362.681 189.521C362.913 189.942 363.029 190.507 363.029 191.215V197.088H361.66V195.881H361.59C361.497 196.074 361.343 196.281 361.126 196.502C360.909 196.722 360.621 196.91 360.261 197.064C359.902 197.219 359.463 197.297 358.944 197.297ZM359.153 196.066C359.695 196.066 360.151 195.96 360.522 195.747C360.898 195.534 361.18 195.26 361.37 194.923C361.563 194.587 361.66 194.233 361.66 193.861V192.608C361.602 192.678 361.474 192.741 361.277 192.799C361.083 192.854 360.859 192.902 360.604 192.944C360.352 192.983 360.107 193.018 359.867 193.049C359.631 193.076 359.439 193.099 359.292 193.119C358.936 193.165 358.604 193.24 358.294 193.345C357.989 193.445 357.741 193.598 357.551 193.803C357.366 194.004 357.273 194.279 357.273 194.627C357.273 195.103 357.449 195.463 357.801 195.707C358.157 195.946 358.608 196.066 359.153 196.066Z" fill="#317AE2"></path>
  <path d="M365.529 197.088V188.174H366.852V189.521H366.945C367.107 189.08 367.401 188.722 367.827 188.447C368.252 188.173 368.732 188.035 369.266 188.035C369.367 188.035 369.492 188.037 369.643 188.041C369.794 188.045 369.908 188.051 369.986 188.058V189.451C369.939 189.44 369.833 189.422 369.666 189.399C369.504 189.372 369.332 189.358 369.15 189.358C368.717 189.358 368.33 189.449 367.989 189.631C367.653 189.809 367.386 190.057 367.189 190.374C366.995 190.687 366.898 191.045 366.898 191.447V197.088H365.529Z" fill="#317AE2"></path>
  <path d="M371.609 197.088V188.174H372.932V189.567H373.048C373.234 189.091 373.533 188.722 373.947 188.459C374.361 188.192 374.858 188.058 375.439 188.058C376.027 188.058 376.516 188.192 376.907 188.459C377.301 188.722 377.609 189.091 377.83 189.567H377.922C378.151 189.107 378.493 188.741 378.95 188.47C379.406 188.196 379.953 188.058 380.592 188.058C381.389 188.058 382.04 188.308 382.547 188.807C383.054 189.302 383.307 190.074 383.307 191.122V197.088H381.938V191.122C381.938 190.465 381.758 189.995 381.398 189.712C381.039 189.43 380.615 189.289 380.127 189.289C379.501 189.289 379.015 189.478 378.671 189.857C378.327 190.233 378.155 190.708 378.155 191.285V197.088H376.762V190.983C376.762 190.476 376.597 190.068 376.269 189.759C375.94 189.445 375.516 189.289 374.998 189.289C374.642 189.289 374.309 189.383 374 189.573C373.694 189.763 373.446 190.026 373.257 190.362C373.071 190.695 372.978 191.08 372.978 191.517V197.088H371.609Z" fill="#317AE2"></path>
  <path d="M388.434 197.297C387.869 197.297 387.357 197.19 386.897 196.977C386.436 196.761 386.071 196.449 385.8 196.043C385.529 195.633 385.394 195.138 385.394 194.558C385.394 194.047 385.494 193.633 385.695 193.316C385.897 192.995 386.165 192.743 386.502 192.561C386.839 192.38 387.21 192.244 387.616 192.155C388.026 192.062 388.438 191.989 388.852 191.935C389.394 191.865 389.833 191.813 390.169 191.778C390.51 191.739 390.757 191.676 390.912 191.587C391.071 191.498 391.15 191.343 391.15 191.122V191.076C391.15 190.503 390.993 190.058 390.68 189.741C390.371 189.424 389.9 189.265 389.27 189.265C388.616 189.265 388.104 189.409 387.732 189.695C387.361 189.981 387.1 190.287 386.949 190.612L385.649 190.147C385.881 189.606 386.191 189.184 386.577 188.882C386.968 188.577 387.394 188.364 387.854 188.244C388.318 188.12 388.775 188.058 389.223 188.058C389.51 188.058 389.839 188.093 390.21 188.163C390.585 188.229 390.947 188.366 391.295 188.575C391.647 188.784 391.939 189.099 392.171 189.521C392.403 189.942 392.52 190.507 392.52 191.215V197.088H391.15V195.881H391.08C390.988 196.074 390.833 196.281 390.616 196.502C390.4 196.722 390.111 196.91 389.752 197.064C389.392 197.219 388.953 197.297 388.434 197.297ZM388.643 196.066C389.185 196.066 389.641 195.96 390.013 195.747C390.388 195.534 390.67 195.26 390.86 194.923C391.053 194.587 391.15 194.233 391.15 193.861V192.608C391.092 192.678 390.964 192.741 390.767 192.799C390.574 192.854 390.349 192.902 390.094 192.944C389.842 192.983 389.597 193.018 389.357 193.049C389.121 193.076 388.929 193.099 388.782 193.119C388.427 193.165 388.094 193.24 387.784 193.345C387.479 193.445 387.231 193.598 387.042 193.803C386.856 194.004 386.763 194.279 386.763 194.627C386.763 195.103 386.939 195.463 387.291 195.707C387.647 195.946 388.098 196.066 388.643 196.066Z" fill="#317AE2"></path>
  <path d="M401.866 200.221C400.683 200.221 399.636 200.059 398.727 199.734C397.818 199.413 397.054 198.939 396.435 198.312C395.816 197.685 395.348 196.917 395.031 196.008C394.713 195.099 394.555 194.059 394.555 192.886C394.555 191.753 394.715 190.739 395.037 189.846C395.361 188.952 395.831 188.194 396.447 187.571C397.066 186.944 397.816 186.467 398.698 186.138C399.584 185.809 400.586 185.644 401.704 185.644C402.791 185.644 403.743 185.822 404.559 186.178C405.379 186.53 406.064 187.008 406.613 187.612C407.166 188.211 407.58 188.886 407.855 189.637C408.134 190.387 408.273 191.161 408.273 191.958C408.273 192.519 408.246 193.088 408.192 193.664C408.137 194.24 408.023 194.77 407.849 195.254C407.675 195.734 407.406 196.121 407.043 196.415C406.683 196.709 406.195 196.856 405.58 196.856C405.31 196.856 405.012 196.813 404.687 196.728C404.362 196.643 404.074 196.502 403.822 196.304C403.571 196.107 403.422 195.842 403.375 195.509H403.306C403.213 195.734 403.07 195.946 402.876 196.148C402.687 196.349 402.437 196.509 402.128 196.629C401.822 196.749 401.449 196.801 401.008 196.786C400.505 196.767 400.062 196.654 399.679 196.449C399.296 196.24 398.975 195.958 398.716 195.602C398.46 195.242 398.267 194.827 398.135 194.355C398.008 193.879 397.944 193.366 397.944 192.817C397.944 192.295 398.021 191.817 398.176 191.383C398.331 190.95 398.545 190.571 398.82 190.246C399.099 189.921 399.423 189.662 399.795 189.469C400.17 189.271 400.574 189.149 401.008 189.103C401.395 189.064 401.747 189.082 402.064 189.155C402.381 189.225 402.642 189.331 402.847 189.474C403.052 189.614 403.182 189.768 403.236 189.939H403.306V189.289H404.536V194.534C404.536 194.859 404.627 195.146 404.809 195.393C404.99 195.641 405.255 195.765 405.604 195.765C405.998 195.765 406.3 195.629 406.509 195.358C406.722 195.088 406.867 194.67 406.944 194.105C407.025 193.54 407.066 192.817 407.066 191.935C407.066 191.416 406.994 190.906 406.851 190.403C406.712 189.896 406.499 189.422 406.213 188.981C405.93 188.54 405.573 188.151 405.139 187.815C404.706 187.478 404.197 187.215 403.613 187.026C403.033 186.832 402.373 186.735 401.634 186.735C400.725 186.735 399.911 186.877 399.191 187.159C398.476 187.438 397.866 187.846 397.363 188.383C396.864 188.917 396.483 189.567 396.22 190.333C395.961 191.095 395.831 191.962 395.831 192.933C395.831 193.919 395.961 194.796 396.22 195.562C396.483 196.328 396.87 196.974 397.381 197.5C397.895 198.026 398.532 198.424 399.29 198.695C400.048 198.97 400.923 199.107 401.913 199.107C402.338 199.107 402.758 199.066 403.172 198.985C403.586 198.904 403.952 198.815 404.269 198.718C404.586 198.622 404.814 198.55 404.954 198.504L405.279 199.571C405.039 199.672 404.725 199.772 404.339 199.873C403.956 199.974 403.545 200.057 403.108 200.123C402.675 200.188 402.261 200.221 401.866 200.221ZM401.193 195.602C401.712 195.602 402.131 195.498 402.453 195.289C402.774 195.08 403.008 194.765 403.155 194.343C403.302 193.921 403.375 193.389 403.375 192.747C403.375 192.097 403.294 191.59 403.132 191.227C402.969 190.863 402.729 190.608 402.412 190.461C402.095 190.314 401.704 190.24 401.24 190.24C400.799 190.24 400.422 190.356 400.108 190.588C399.799 190.817 399.561 191.122 399.394 191.505C399.232 191.884 399.151 192.298 399.151 192.747C399.151 193.242 399.216 193.708 399.348 194.146C399.48 194.579 399.694 194.931 399.992 195.202C400.29 195.469 400.69 195.602 401.193 195.602Z" fill="#317AE2"></path>
  <path d="M414.06 197.273C413.201 197.273 412.46 197.084 411.837 196.705C411.218 196.322 410.741 195.788 410.404 195.103C410.071 194.415 409.905 193.614 409.905 192.701C409.905 191.788 410.071 190.983 410.404 190.287C410.741 189.587 411.209 189.041 411.808 188.65C412.412 188.256 413.116 188.058 413.92 188.058C414.385 188.058 414.843 188.136 415.296 188.291C415.748 188.445 416.16 188.697 416.532 189.045C416.903 189.389 417.199 189.846 417.42 190.414C417.64 190.983 417.75 191.683 417.75 192.515V193.095H410.88V191.912H416.358C416.358 191.409 416.257 190.96 416.056 190.565C415.859 190.171 415.576 189.859 415.209 189.631C414.845 189.403 414.416 189.289 413.92 189.289C413.375 189.289 412.903 189.424 412.505 189.695C412.11 189.962 411.806 190.31 411.594 190.739C411.381 191.169 411.274 191.629 411.274 192.12V192.91C411.274 193.583 411.39 194.153 411.623 194.621C411.859 195.086 412.185 195.44 412.603 195.683C413.021 195.923 413.507 196.043 414.06 196.043C414.42 196.043 414.744 195.993 415.035 195.892C415.329 195.788 415.582 195.633 415.795 195.428C416.008 195.219 416.172 194.96 416.288 194.65L417.611 195.022C417.472 195.471 417.238 195.865 416.909 196.206C416.58 196.542 416.174 196.805 415.69 196.995C415.207 197.181 414.663 197.273 414.06 197.273Z" fill="#317AE2"></path>
  <path d="M419.834 197.088V188.174H421.157V189.567H421.273C421.458 189.091 421.758 188.722 422.172 188.459C422.586 188.192 423.083 188.058 423.663 188.058C424.252 188.058 424.741 188.192 425.132 188.459C425.526 188.722 425.834 189.091 426.054 189.567H426.147C426.375 189.107 426.718 188.741 427.174 188.47C427.631 188.196 428.178 188.058 428.816 188.058C429.613 188.058 430.265 188.308 430.772 188.807C431.279 189.302 431.532 190.074 431.532 191.122V197.088H430.163V191.122C430.163 190.465 429.983 189.995 429.623 189.712C429.263 189.43 428.84 189.289 428.352 189.289C427.726 189.289 427.24 189.478 426.896 189.857C426.551 190.233 426.379 190.708 426.379 191.285V197.088H424.987V190.983C424.987 190.476 424.822 190.068 424.493 189.759C424.164 189.445 423.741 189.289 423.222 189.289C422.867 189.289 422.534 189.383 422.224 189.573C421.919 189.763 421.671 190.026 421.482 190.362C421.296 190.695 421.203 191.08 421.203 191.517V197.088H419.834Z" fill="#317AE2"></path>
  <path d="M436.659 197.297C436.094 197.297 435.582 197.19 435.121 196.977C434.661 196.761 434.295 196.449 434.025 196.043C433.754 195.633 433.618 195.138 433.618 194.558C433.618 194.047 433.719 193.633 433.92 193.316C434.121 192.995 434.39 192.743 434.727 192.561C435.063 192.38 435.435 192.244 435.841 192.155C436.251 192.062 436.663 191.989 437.077 191.935C437.618 191.865 438.058 191.813 438.394 191.778C438.735 191.739 438.982 191.676 439.137 191.587C439.295 191.498 439.375 191.343 439.375 191.122V191.076C439.375 190.503 439.218 190.058 438.905 189.741C438.595 189.424 438.125 189.265 437.495 189.265C436.841 189.265 436.328 189.409 435.957 189.695C435.585 189.981 435.324 190.287 435.173 190.612L433.874 190.147C434.106 189.606 434.415 189.184 434.802 188.882C435.193 188.577 435.618 188.364 436.079 188.244C436.543 188.12 436.999 188.058 437.448 188.058C437.734 188.058 438.063 188.093 438.435 188.163C438.81 188.229 439.172 188.366 439.52 188.575C439.872 188.784 440.164 189.099 440.396 189.521C440.628 189.942 440.744 190.507 440.744 191.215V197.088H439.375V195.881H439.305C439.212 196.074 439.058 196.281 438.841 196.502C438.624 196.722 438.336 196.91 437.976 197.064C437.617 197.219 437.177 197.297 436.659 197.297ZM436.868 196.066C437.41 196.066 437.866 195.96 438.237 195.747C438.613 195.534 438.895 195.26 439.085 194.923C439.278 194.587 439.375 194.233 439.375 193.861V192.608C439.317 192.678 439.189 192.741 438.992 192.799C438.798 192.854 438.574 192.902 438.319 192.944C438.067 192.983 437.822 193.018 437.582 193.049C437.346 193.076 437.154 193.099 437.007 193.119C436.651 193.165 436.319 193.24 436.009 193.345C435.703 193.445 435.456 193.598 435.266 193.803C435.081 194.004 434.988 194.279 434.988 194.627C434.988 195.103 435.164 195.463 435.516 195.707C435.872 195.946 436.322 196.066 436.868 196.066Z" fill="#317AE2"></path>
  <path d="M443.244 197.088V188.174H444.613V197.088H443.244ZM443.94 186.689C443.673 186.689 443.443 186.598 443.25 186.416C443.06 186.234 442.965 186.016 442.965 185.76C442.965 185.505 443.06 185.287 443.25 185.105C443.443 184.923 443.673 184.832 443.94 184.832C444.207 184.832 444.435 184.923 444.625 185.105C444.818 185.287 444.915 185.505 444.915 185.76C444.915 186.016 444.818 186.234 444.625 186.416C444.435 186.598 444.207 186.689 443.94 186.689Z" fill="#317AE2"></path>
  <path d="M448.491 185.203V197.088H447.122V185.203H448.491Z" fill="#317AE2"></path>
  <path d="M450.744 197.088V196.043L455.804 189.544V189.451H450.907V188.174H457.568V189.265L452.647 195.718V195.811H457.731V197.088H450.744Z" fill="#317AE2"></path>
  <path d="M460.838 197.181C460.552 197.181 460.306 197.078 460.101 196.873C459.896 196.668 459.794 196.422 459.794 196.136C459.794 195.85 459.896 195.604 460.101 195.399C460.306 195.194 460.552 195.092 460.838 195.092C461.124 195.092 461.37 195.194 461.575 195.399C461.78 195.604 461.883 195.85 461.883 196.136C461.883 196.326 461.834 196.5 461.738 196.658C461.645 196.817 461.519 196.945 461.36 197.041C461.206 197.134 461.032 197.181 460.838 197.181Z" fill="#317AE2"></path>
  <path d="M467.961 197.273C467.126 197.273 466.406 197.076 465.802 196.681C465.199 196.287 464.735 195.743 464.41 195.051C464.085 194.358 463.922 193.567 463.922 192.678C463.922 191.772 464.089 190.973 464.421 190.281C464.758 189.585 465.226 189.041 465.826 188.65C466.429 188.256 467.133 188.058 467.938 188.058C468.565 188.058 469.129 188.174 469.632 188.407C470.135 188.639 470.547 188.964 470.868 189.381C471.189 189.799 471.389 190.287 471.466 190.844H470.097C469.992 190.438 469.76 190.078 469.4 189.764C469.044 189.447 468.565 189.289 467.961 189.289C467.427 189.289 466.959 189.428 466.557 189.706C466.158 189.981 465.847 190.37 465.623 190.873C465.402 191.372 465.292 191.958 465.292 192.631C465.292 193.32 465.4 193.919 465.617 194.43C465.837 194.941 466.147 195.337 466.545 195.62C466.948 195.902 467.42 196.043 467.961 196.043C468.317 196.043 468.64 195.981 468.93 195.857C469.22 195.734 469.466 195.556 469.667 195.324C469.868 195.092 470.012 194.813 470.097 194.488H471.466C471.389 195.014 471.197 195.488 470.892 195.91C470.59 196.328 470.189 196.66 469.69 196.908C469.195 197.152 468.619 197.273 467.961 197.273Z" fill="#317AE2"></path>
  <path d="M477.089 197.273C476.284 197.273 475.578 197.082 474.971 196.699C474.368 196.316 473.896 195.78 473.555 195.092C473.219 194.403 473.05 193.598 473.05 192.678C473.05 191.749 473.219 190.939 473.555 190.246C473.896 189.554 474.368 189.016 474.971 188.633C475.578 188.25 476.284 188.058 477.089 188.058C477.894 188.058 478.598 188.25 479.201 188.633C479.809 189.016 480.281 189.554 480.617 190.246C480.958 190.939 481.128 191.749 481.128 192.678C481.128 193.598 480.958 194.403 480.617 195.092C480.281 195.78 479.809 196.316 479.201 196.699C478.598 197.082 477.894 197.273 477.089 197.273ZM477.089 196.043C477.7 196.043 478.203 195.886 478.598 195.573C478.992 195.26 479.284 194.848 479.474 194.337C479.664 193.826 479.758 193.273 479.758 192.678C479.758 192.082 479.664 191.527 479.474 191.012C479.284 190.498 478.992 190.082 478.598 189.764C478.203 189.447 477.7 189.289 477.089 189.289C476.478 189.289 475.975 189.447 475.58 189.764C475.186 190.082 474.894 190.498 474.704 191.012C474.515 191.527 474.42 192.082 474.42 192.678C474.42 193.273 474.515 193.826 474.704 194.337C474.894 194.848 475.186 195.26 475.58 195.573C475.975 195.886 476.478 196.043 477.089 196.043Z" fill="#317AE2"></path>
  <path d="M483.218 197.088V188.174H484.541V189.567H484.657C484.843 189.091 485.143 188.722 485.557 188.459C485.971 188.192 486.468 188.058 487.048 188.058C487.636 188.058 488.126 188.192 488.516 188.459C488.911 188.722 489.219 189.091 489.439 189.567H489.532C489.76 189.107 490.102 188.741 490.559 188.47C491.015 188.196 491.563 188.058 492.201 188.058C492.998 188.058 493.65 188.308 494.157 188.807C494.664 189.302 494.917 190.074 494.917 191.122V197.088H493.547V191.122C493.547 190.465 493.368 189.995 493.008 189.712C492.648 189.43 492.224 189.289 491.737 189.289C491.11 189.289 490.625 189.478 490.28 189.857C489.936 190.233 489.764 190.708 489.764 191.285V197.088H488.371V190.983C488.371 190.476 488.207 190.068 487.878 189.759C487.549 189.445 487.126 189.289 486.607 189.289C486.251 189.289 485.919 189.383 485.609 189.573C485.304 189.763 485.056 190.026 484.866 190.362C484.681 190.695 484.588 191.08 484.588 191.517V197.088H483.218Z" fill="#317AE2"></path>
  <g clip-path="url(#clip0_4672_27922)">
    <rect x="90.7344" y="87.6211" width="127.41" height="127.41" rx="63.705" fill="#CFD0F9"></rect>
    <path d="M186.374 181.902L204.873 238.624C205.223 239.699 205.402 240.824 205.402 241.955V323.328H93.2812L93.2817 245.399C93.2817 243.632 93.6374 241.882 94.3287 240.247L126.651 181.902H186.374Z" fill="#527669"></path>
    <path fill-rule="evenodd" clip-rule="evenodd" d="M180.832 280.382L180.832 181.898L194.895 181.898C213.882 181.898 229.274 197.29 229.274 216.277V280.382L229.274 280.382V304.112C229.274 314.754 220.647 323.381 210.005 323.381L151.186 323.381C139.319 323.382 129.699 313.762 129.699 301.895L129.699 280.382L180.832 280.382Z" fill="#527669"></path>
    <path d="M57.0532 282.92H57.0901L55.7586 286.233C48.6193 303.994 61.7324 323.328 80.918 323.328H156.987V282.92H104.319L146.503 181.902L124.576 181.902C107.02 181.901 94.555 191.955 88.2337 207.349L57.0532 282.92Z" fill="#527669"></path>
    <path d="M152.528 198.466C161.324 198.466 168.454 191.05 168.454 181.902H136.602C136.602 191.05 143.732 198.466 152.528 198.466Z" fill="white"></path>
    <path d="M144.979 101.59C152.701 100.143 159.174 98.7153 165.425 100.11C171.682 101.523 177.699 105.766 181.523 112.213C185.348 118.661 186.966 127.285 184.602 134.371C182.232 141.471 175.891 147.018 169.49 153.941C163.091 160.861 156.63 169.152 150.859 168.985C145.093 168.804 139.987 160.16 135.083 153.127C130.198 146.087 125.484 140.656 122.905 133.062C120.311 125.459 119.819 115.712 124.059 110.099C128.292 104.501 137.267 103.041 144.979 101.59Z" fill="#030A0F"></path>
    <path d="M172.762 152.494V161.936C172.762 167.463 169.443 172.214 164.689 174.304V183.514C164.689 190.202 159.267 195.625 152.578 195.625C145.89 195.625 140.468 190.202 140.468 183.514V174.304C135.714 172.214 132.394 167.463 132.394 161.936V152.494C129.422 152.494 127.012 150.084 127.012 147.111C127.012 144.138 129.422 141.729 132.394 141.729H133.74L137.777 126.855H167.38L171.417 141.729H172.762C175.735 141.729 178.145 144.138 178.145 147.111C178.145 150.084 175.735 152.494 172.762 152.494Z" fill="#AD7C4E"></path>
    <path d="M131.497 144.955C130.793 144.955 130.223 145.811 130.223 146.866C130.223 147.922 130.793 148.777 131.497 148.777" stroke="#76411C" stroke-width="0.746617" stroke-linecap="round"></path>
    <path d="M173.542 144.955C174.246 144.955 174.816 145.811 174.816 146.866C174.816 147.922 174.246 148.777 173.542 148.777" stroke="#76411C" stroke-width="0.746617" stroke-linecap="round"></path>
    <path d="M145.519 162.536C145.519 162.536 148.575 158.969 153.164 158.969C157.753 158.969 160.809 162.536 160.809 162.536C160.809 162.536 158.096 166.613 153.164 166.613C148.232 166.613 145.519 162.536 145.519 162.536Z" fill="#76411C"></path>
    <circle cx="143.259" cy="142.404" r="1.27481" fill="#030A0F"></circle>
    <ellipse cx="161.954" cy="142.404" rx="1.27481" ry="1.27481" fill="#030A0F"></ellipse>
  </g>
  <path d="M262.846 110.623C262.846 109.348 263.879 108.315 265.154 108.315C266.429 108.315 267.462 109.348 267.462 110.623C267.462 111.897 266.429 112.931 265.154 112.931C263.879 112.931 262.846 111.897 262.846 110.623ZM265.154 106.93C263.114 106.93 261.461 108.583 261.461 110.623C261.461 112.662 263.114 114.316 265.154 114.316C267.193 114.316 268.847 112.662 268.847 110.623C268.847 108.583 267.193 106.93 265.154 106.93ZM258.976 122.026C259.382 118.977 261.994 116.624 265.154 116.624C268.314 116.624 270.926 118.977 271.331 122.026C271.335 122.055 271.329 122.079 271.303 122.106C271.274 122.136 271.222 122.164 271.155 122.164H259.153C259.086 122.164 259.034 122.136 259.005 122.106C258.979 122.079 258.973 122.055 258.976 122.026ZM265.154 115.239C261.29 115.239 258.099 118.115 257.604 121.844C257.473 122.826 258.289 123.548 259.153 123.548H271.155C272.019 123.548 272.835 122.826 272.704 121.844C272.208 118.115 269.018 115.239 265.154 115.239Z" fill="#192435"></path>
  <rect x="57.5" y="259.348" width="461.631" height="184.652" rx="6.2504" fill="white"></rect>
  <path d="M299.615 363.59H301.144V360.508H304.226V358.979H301.144V355.903H299.615V358.979H296.539V360.508H299.615V363.59Z" fill="#317AE2"></path>
  <path d="M311.25 353.902H309.539L306.634 355.801V357.483L309.42 355.664H309.488V365.546H311.25V353.902Z" fill="#317AE2"></path>
  <path d="M314.4 365.546H322.064V364.039H316.822V363.954L319.136 361.532C321.268 359.377 321.877 358.348 321.877 357.046C321.877 355.175 320.353 353.742 318.158 353.742C315.981 353.742 314.389 355.152 314.389 357.279H316.066C316.06 356.028 316.868 355.209 318.124 355.209C319.307 355.209 320.205 355.937 320.205 357.097C320.205 358.126 319.591 358.865 318.34 360.19L314.4 364.272V365.546Z" fill="#317AE2"></path>
  <path d="M328.273 365.705C330.649 365.705 332.395 364.283 332.389 362.35C332.395 360.878 331.502 359.82 329.956 359.581V359.49C331.172 359.178 331.963 358.223 331.957 356.915C331.963 355.204 330.558 353.742 328.318 353.742C326.18 353.742 324.463 355.033 324.407 356.926H326.107C326.146 355.857 327.153 355.209 328.295 355.209C329.484 355.209 330.263 355.931 330.257 357.006C330.263 358.132 329.359 358.871 328.068 358.871H327.084V360.303H328.068C329.683 360.303 330.615 361.122 330.615 362.293C330.615 363.425 329.632 364.192 328.261 364.192C326.999 364.192 326.016 363.544 325.947 362.509H324.162C324.236 364.408 325.919 365.705 328.273 365.705Z" fill="#317AE2"></path>
  <path d="M338.531 363.271H344.051V365.546H345.729V363.271H347.269V361.782H345.729V353.902H343.562L338.531 361.85V363.271ZM344.063 361.782H340.373V361.691L343.972 355.994H344.063V361.782Z" fill="#317AE2"></path>
  <path d="M353.094 365.705C355.437 365.705 357.108 364.05 357.102 361.782C357.108 359.53 355.539 357.893 353.418 357.893C352.554 357.893 351.752 358.223 351.298 358.666H351.229L351.599 355.408H356.54V353.902H350.138L349.484 359.769L351.093 360.008C351.531 359.616 352.315 359.348 353.02 359.348C354.402 359.36 355.403 360.394 355.403 361.816C355.403 363.214 354.43 364.226 353.094 364.226C351.968 364.226 351.076 363.51 350.985 362.509H349.279C349.347 364.363 350.956 365.705 353.094 365.705Z" fill="#317AE2"></path>
  <path d="M363.244 365.705C365.678 365.727 367.292 363.976 367.287 361.742C367.292 359.513 365.672 357.916 363.654 357.916C362.426 357.916 361.362 358.507 360.765 359.49H360.68C360.686 356.847 361.686 355.277 363.392 355.277C364.512 355.277 365.217 355.96 365.456 356.926H367.19C366.923 355.084 365.473 353.742 363.392 353.742C360.686 353.742 358.997 356.068 358.997 360.116C358.992 364.403 361.175 365.688 363.244 365.705ZM363.239 364.226C361.885 364.226 360.896 363.089 360.896 361.782C360.902 360.48 361.937 359.343 363.278 359.343C364.609 359.343 365.587 360.417 365.581 361.765C365.587 363.141 364.569 364.226 363.239 364.226Z" fill="#317AE2"></path>
  <path d="M373.987 365.546H375.823L380.889 355.459V353.902H373.191V355.408H379.07V355.494L373.987 365.546Z" fill="#317AE2"></path>
  <path d="M386.566 365.705C388.988 365.705 390.7 364.329 390.711 362.441C390.7 360.974 389.67 359.741 388.369 359.508V359.439C389.5 359.166 390.267 358.103 390.279 356.847C390.267 355.067 388.698 353.742 386.566 353.742C384.411 353.742 382.842 355.067 382.854 356.847C382.842 358.098 383.61 359.166 384.764 359.439V359.508C383.439 359.741 382.41 360.974 382.421 362.441C382.41 364.329 384.121 365.705 386.566 365.705ZM386.566 364.266C385.111 364.266 384.19 363.493 384.201 362.328C384.19 361.117 385.19 360.252 386.566 360.252C387.919 360.252 388.92 361.117 388.931 362.328C388.92 363.493 388.005 364.266 386.566 364.266ZM386.566 358.848C385.389 358.848 384.554 358.103 384.565 356.995C384.554 355.903 385.361 355.181 386.566 355.181C387.749 355.181 388.556 355.903 388.568 356.995C388.556 358.103 387.726 358.848 386.566 358.848Z" fill="#317AE2"></path>
  <path d="M396.62 353.742C394.175 353.72 392.577 355.476 392.577 357.682C392.583 359.905 394.192 361.509 396.21 361.509C397.444 361.509 398.502 360.906 399.098 359.928H399.189C399.184 362.606 398.177 364.17 396.472 364.17C395.357 364.17 394.641 363.487 394.414 362.492H392.68C392.935 364.374 394.391 365.705 396.472 365.705C399.178 365.705 400.872 363.379 400.872 359.303C400.867 355.05 398.695 353.759 396.62 353.742ZM396.625 355.221C397.973 355.221 398.968 356.363 398.968 357.643C398.973 358.939 397.922 360.076 396.591 360.076C395.255 360.076 394.289 359.007 394.283 357.66C394.283 356.307 395.289 355.221 396.625 355.221Z" fill="#317AE2"></path>
  <path d="M300.709 400.962C300.036 400.962 299.458 400.876 298.974 400.703C298.49 400.533 298.087 400.309 297.764 400.03C297.445 399.754 297.192 399.459 297.003 399.145L298.112 398.366C298.238 398.531 298.397 398.72 298.59 398.932C298.783 399.149 299.047 399.335 299.381 399.493C299.719 399.654 300.162 399.735 300.709 399.735C301.441 399.735 302.045 399.558 302.521 399.204C302.997 398.85 303.235 398.295 303.235 397.539V395.698H303.117C303.014 395.863 302.869 396.068 302.68 396.312C302.495 396.552 302.228 396.766 301.877 396.955C301.531 397.14 301.063 397.233 300.473 397.233C299.741 397.233 299.084 397.059 298.502 396.713C297.923 396.367 297.465 395.863 297.127 395.202C296.792 394.541 296.625 393.739 296.625 392.795C296.625 391.866 296.788 391.058 297.115 390.369C297.441 389.677 297.896 389.142 298.478 388.764C299.06 388.382 299.733 388.191 300.496 388.191C301.087 388.191 301.555 388.29 301.901 388.486C302.251 388.679 302.519 388.9 302.704 389.147C302.892 389.391 303.038 389.592 303.14 389.749H303.282V388.309H304.627V397.634C304.627 398.413 304.45 399.046 304.096 399.534C303.746 400.026 303.274 400.386 302.68 400.614C302.09 400.846 301.433 400.962 300.709 400.962ZM300.662 395.981C301.22 395.981 301.692 395.854 302.078 395.598C302.464 395.342 302.757 394.974 302.957 394.494C303.158 394.014 303.258 393.44 303.258 392.771C303.258 392.118 303.16 391.542 302.963 391.042C302.767 390.542 302.475 390.151 302.09 389.867C301.704 389.584 301.228 389.443 300.662 389.443C300.071 389.443 299.58 389.592 299.186 389.891C298.797 390.19 298.504 390.591 298.307 391.095C298.114 391.599 298.018 392.157 298.018 392.771C298.018 393.4 298.116 393.957 298.313 394.441C298.513 394.921 298.809 395.299 299.198 395.574C299.592 395.846 300.079 395.981 300.662 395.981Z" fill="#317AE2"></path>
  <path d="M308.57 385.288V397.374H307.177V385.288H308.57Z" fill="#317AE2"></path>
  <path d="M314.803 397.563C313.985 397.563 313.267 397.368 312.649 396.979C312.035 396.589 311.555 396.044 311.209 395.344C310.867 394.644 310.696 393.825 310.696 392.889C310.696 391.945 310.867 391.121 311.209 390.416C311.555 389.712 312.035 389.165 312.649 388.776C313.267 388.386 313.985 388.191 314.803 388.191C315.622 388.191 316.338 388.386 316.951 388.776C317.569 389.165 318.049 389.712 318.391 390.416C318.738 391.121 318.911 391.945 318.911 392.889C318.911 393.825 318.738 394.644 318.391 395.344C318.049 396.044 317.569 396.589 316.951 396.979C316.338 397.368 315.622 397.563 314.803 397.563ZM314.803 396.312C315.425 396.312 315.936 396.153 316.338 395.834C316.739 395.515 317.036 395.096 317.229 394.577C317.421 394.058 317.518 393.495 317.518 392.889C317.518 392.283 317.421 391.719 317.229 391.195C317.036 390.672 316.739 390.249 316.338 389.926C315.936 389.604 315.425 389.443 314.803 389.443C314.182 389.443 313.67 389.604 313.269 389.926C312.867 390.249 312.57 390.672 312.378 391.195C312.185 391.719 312.088 392.283 312.088 392.889C312.088 393.495 312.185 394.058 312.378 394.577C312.57 395.096 312.867 395.515 313.269 395.834C313.67 396.153 314.182 396.312 314.803 396.312Z" fill="#317AE2"></path>
  <path d="M321.037 397.374V388.309H322.382V389.679H322.477C322.642 389.23 322.941 388.866 323.374 388.587C323.806 388.307 324.294 388.168 324.837 388.168C324.94 388.168 325.067 388.17 325.221 388.174C325.374 388.178 325.49 388.184 325.569 388.191V389.608C325.522 389.596 325.414 389.578 325.244 389.555C325.079 389.527 324.904 389.513 324.719 389.513C324.279 389.513 323.885 389.606 323.539 389.791C323.197 389.972 322.925 390.223 322.725 390.546C322.528 390.865 322.429 391.229 322.429 391.638V397.374H321.037Z" fill="#317AE2"></path>
  <path d="M327.22 397.374V388.309H328.613V397.374H327.22ZM327.928 386.799C327.657 386.799 327.423 386.706 327.226 386.521C327.033 386.336 326.937 386.114 326.937 385.854C326.937 385.595 327.033 385.372 327.226 385.188C327.423 385.003 327.657 384.91 327.928 384.91C328.2 384.91 328.432 385.003 328.625 385.188C328.821 385.372 328.92 385.595 328.92 385.854C328.92 386.114 328.821 386.336 328.625 386.521C328.432 386.706 328.2 386.799 327.928 386.799Z" fill="#317AE2"></path>
  <path d="M333.831 397.587C333.257 397.587 332.735 397.478 332.267 397.262C331.799 397.042 331.427 396.725 331.152 396.312C330.876 395.895 330.739 395.391 330.739 394.801C330.739 394.282 330.841 393.861 331.046 393.538C331.25 393.212 331.524 392.956 331.866 392.771C332.208 392.586 332.586 392.448 332.999 392.358C333.416 392.263 333.835 392.189 334.256 392.134C334.807 392.063 335.253 392.01 335.596 391.974C335.942 391.935 336.194 391.87 336.351 391.78C336.512 391.689 336.593 391.532 336.593 391.307V391.26C336.593 390.678 336.434 390.225 336.115 389.903C335.8 389.58 335.322 389.419 334.681 389.419C334.016 389.419 333.495 389.564 333.117 389.856C332.739 390.147 332.474 390.458 332.32 390.788L330.998 390.316C331.235 389.765 331.549 389.336 331.943 389.029C332.34 388.719 332.773 388.502 333.241 388.38C333.713 388.254 334.177 388.191 334.634 388.191C334.925 388.191 335.259 388.227 335.637 388.298C336.019 388.365 336.387 388.504 336.741 388.717C337.099 388.929 337.396 389.25 337.632 389.679C337.868 390.107 337.986 390.682 337.986 391.402V397.374H336.593V396.147H336.522C336.428 396.343 336.27 396.554 336.05 396.778C335.83 397.002 335.537 397.193 335.171 397.351C334.805 397.508 334.358 397.587 333.831 397.587ZM334.044 396.336C334.594 396.336 335.059 396.227 335.436 396.011C335.818 395.795 336.105 395.515 336.298 395.173C336.495 394.831 336.593 394.471 336.593 394.093V392.818C336.534 392.889 336.404 392.954 336.204 393.013C336.007 393.068 335.779 393.117 335.519 393.16C335.263 393.2 335.013 393.235 334.77 393.267C334.53 393.294 334.335 393.318 334.185 393.338C333.823 393.385 333.485 393.461 333.17 393.568C332.859 393.67 332.608 393.825 332.415 394.034C332.226 394.239 332.132 394.518 332.132 394.872C332.132 395.356 332.311 395.722 332.669 395.97C333.031 396.214 333.489 396.336 334.044 396.336Z" fill="#317AE2"></path>
  <path d="M341.543 397.469C341.252 397.469 341.002 397.364 340.794 397.156C340.585 396.947 340.481 396.697 340.481 396.406C340.481 396.115 340.585 395.865 340.794 395.657C341.002 395.448 341.252 395.344 341.543 395.344C341.834 395.344 342.084 395.448 342.293 395.657C342.501 395.865 342.605 396.115 342.605 396.406C342.605 396.599 342.556 396.776 342.458 396.937C342.363 397.099 342.235 397.229 342.074 397.327C341.917 397.421 341.74 397.469 341.543 397.469Z" fill="#317AE2"></path>
  <path d="M351.289 400.773V395.981H351.171C351.069 396.147 350.923 396.355 350.735 396.607C350.546 396.855 350.276 397.077 349.926 397.274C349.576 397.467 349.11 397.563 348.527 397.563C347.772 397.563 347.105 397.372 346.527 396.991C345.949 396.605 345.496 396.062 345.169 395.362C344.843 394.658 344.68 393.825 344.68 392.865C344.68 391.913 344.843 391.087 345.169 390.387C345.496 389.686 345.95 389.145 346.533 388.764C347.115 388.382 347.788 388.191 348.551 388.191C349.141 388.191 349.607 388.29 349.95 388.486C350.296 388.679 350.56 388.9 350.741 389.147C350.925 389.391 351.069 389.592 351.171 389.749H351.337V388.309H352.682V400.773H351.289ZM348.716 396.312C349.275 396.312 349.747 396.166 350.133 395.875C350.518 395.58 350.811 395.173 351.012 394.654C351.213 394.13 351.313 393.526 351.313 392.842C351.313 392.165 351.215 391.573 351.018 391.065C350.821 390.554 350.53 390.157 350.144 389.873C349.759 389.586 349.283 389.443 348.716 389.443C348.126 389.443 347.634 389.594 347.241 389.897C346.851 390.196 346.558 390.603 346.362 391.119C346.169 391.63 346.072 392.204 346.072 392.842C346.072 393.487 346.171 394.073 346.368 394.6C346.568 395.124 346.863 395.541 347.253 395.852C347.646 396.158 348.134 396.312 348.716 396.312Z" fill="#317AE2"></path>
  <path d="M360.944 393.668V388.309H362.337V397.374H360.944V395.84H360.85C360.637 396.3 360.307 396.692 359.858 397.014C359.41 397.333 358.843 397.492 358.159 397.492C357.592 397.492 357.089 397.368 356.648 397.12C356.207 396.869 355.861 396.491 355.609 395.987C355.358 395.48 355.232 394.84 355.232 394.069V388.309H356.624V393.975C356.624 394.636 356.809 395.163 357.179 395.557C357.553 395.95 358.029 396.147 358.607 396.147C358.954 396.147 359.306 396.058 359.664 395.881C360.026 395.704 360.329 395.433 360.572 395.067C360.82 394.701 360.944 394.235 360.944 393.668Z" fill="#317AE2"></path>
  <path d="M364.888 397.374V388.309H366.281V397.374H364.888ZM365.596 386.799C365.325 386.799 365.091 386.706 364.894 386.521C364.701 386.336 364.605 386.114 364.605 385.854C364.605 385.595 364.701 385.372 364.894 385.188C365.091 385.003 365.325 384.91 365.596 384.91C365.868 384.91 366.1 385.003 366.293 385.188C366.489 385.372 366.588 385.595 366.588 385.854C366.588 386.114 366.489 386.336 366.293 386.521C366.1 386.706 365.868 386.799 365.596 386.799Z" fill="#317AE2"></path>
  <path d="M370.224 391.921V397.374H368.832V388.309H370.177V389.726H370.295C370.508 389.265 370.83 388.896 371.263 388.616C371.696 388.333 372.255 388.191 372.939 388.191C373.553 388.191 374.09 388.317 374.55 388.569C375.011 388.817 375.369 389.195 375.624 389.702C375.88 390.206 376.008 390.843 376.008 391.614V397.374H374.615V391.709C374.615 390.997 374.43 390.442 374.06 390.044C373.691 389.643 373.183 389.443 372.538 389.443C372.093 389.443 371.696 389.539 371.346 389.732C371 389.924 370.726 390.206 370.525 390.576C370.325 390.945 370.224 391.394 370.224 391.921Z" fill="#317AE2"></path>
  <path d="M379.946 391.921V397.374H378.553V388.309H379.899V389.726H380.017C380.229 389.265 380.552 388.896 380.984 388.616C381.417 388.333 381.976 388.191 382.66 388.191C383.274 388.191 383.811 388.317 384.272 388.569C384.732 388.817 385.09 389.195 385.346 389.702C385.601 390.206 385.729 390.843 385.729 391.614V397.374H384.336V391.709C384.336 390.997 384.152 390.442 383.782 390.044C383.412 389.643 382.904 389.443 382.259 389.443C381.815 389.443 381.417 389.539 381.067 389.732C380.721 389.924 380.447 390.206 380.247 390.576C380.046 390.945 379.946 391.394 379.946 391.921Z" fill="#317AE2"></path>
  <path d="M395.238 400.561C394.034 400.561 392.97 400.396 392.045 400.065C391.121 399.739 390.344 399.257 389.714 398.619C389.085 397.982 388.609 397.201 388.286 396.277C387.963 395.352 387.802 394.294 387.802 393.101C387.802 391.949 387.965 390.918 388.292 390.009C388.622 389.1 389.1 388.329 389.726 387.696C390.356 387.058 391.119 386.572 392.016 386.238C392.917 385.904 393.936 385.736 395.073 385.736C396.178 385.736 397.146 385.917 397.976 386.279C398.81 386.637 399.507 387.123 400.066 387.737C400.628 388.347 401.049 389.033 401.328 389.797C401.612 390.56 401.753 391.347 401.753 392.157C401.753 392.728 401.726 393.306 401.671 393.892C401.616 394.479 401.5 395.018 401.323 395.509C401.146 395.997 400.872 396.391 400.502 396.69C400.136 396.989 399.641 397.138 399.015 397.138C398.74 397.138 398.437 397.095 398.106 397.008C397.776 396.922 397.483 396.778 397.227 396.577C396.971 396.377 396.82 396.107 396.772 395.769H396.702C396.607 395.997 396.462 396.214 396.265 396.418C396.072 396.623 395.818 396.786 395.504 396.908C395.193 397.03 394.813 397.083 394.365 397.067C393.853 397.048 393.403 396.934 393.013 396.725C392.624 396.513 392.297 396.225 392.034 395.863C391.774 395.497 391.577 395.075 391.443 394.595C391.314 394.111 391.249 393.589 391.249 393.031C391.249 392.5 391.327 392.014 391.485 391.573C391.642 391.132 391.86 390.747 392.14 390.416C392.423 390.086 392.754 389.822 393.131 389.625C393.513 389.425 393.924 389.301 394.365 389.254C394.758 389.214 395.116 389.232 395.439 389.307C395.761 389.378 396.027 389.486 396.235 389.631C396.444 389.773 396.576 389.93 396.631 390.104H396.702V389.443H397.953V394.778C397.953 395.108 398.045 395.399 398.23 395.651C398.415 395.903 398.685 396.029 399.039 396.029C399.44 396.029 399.747 395.891 399.959 395.616C400.176 395.34 400.323 394.915 400.402 394.341C400.485 393.766 400.526 393.031 400.526 392.134C400.526 391.606 400.453 391.087 400.307 390.576C400.166 390.06 399.949 389.578 399.658 389.13C399.371 388.681 399.007 388.286 398.567 387.944C398.126 387.601 397.609 387.334 397.014 387.141C396.424 386.944 395.753 386.846 395.002 386.846C394.077 386.846 393.249 386.989 392.517 387.277C391.79 387.56 391.17 387.975 390.658 388.522C390.151 389.065 389.763 389.726 389.496 390.505C389.232 391.28 389.1 392.161 389.1 393.149C389.1 394.152 389.232 395.043 389.496 395.822C389.763 396.601 390.157 397.258 390.676 397.793C391.199 398.328 391.847 398.734 392.618 399.009C393.389 399.288 394.278 399.428 395.285 399.428C395.718 399.428 396.145 399.387 396.566 399.304C396.987 399.221 397.359 399.131 397.681 399.033C398.004 398.934 398.236 398.861 398.378 398.814L398.708 399.9C398.464 400.002 398.146 400.105 397.752 400.207C397.363 400.309 396.946 400.394 396.501 400.461C396.06 400.528 395.639 400.561 395.238 400.561ZM394.553 395.863C395.081 395.863 395.508 395.757 395.834 395.545C396.161 395.332 396.399 395.012 396.548 394.583C396.698 394.154 396.772 393.613 396.772 392.96C396.772 392.299 396.69 391.783 396.525 391.414C396.359 391.044 396.115 390.784 395.793 390.635C395.47 390.485 395.073 390.41 394.601 390.41C394.152 390.41 393.769 390.528 393.45 390.764C393.135 390.997 392.893 391.307 392.724 391.697C392.559 392.082 392.476 392.503 392.476 392.96C392.476 393.463 392.543 393.938 392.677 394.382C392.811 394.823 393.029 395.181 393.332 395.456C393.635 395.728 394.042 395.863 394.553 395.863Z" fill="#317AE2"></path>
  <path d="M407.639 397.563C406.765 397.563 406.012 397.37 405.378 396.985C404.749 396.595 404.263 396.052 403.921 395.356C403.582 394.656 403.413 393.841 403.413 392.913C403.413 391.984 403.582 391.166 403.921 390.458C404.263 389.745 404.739 389.191 405.349 388.793C405.963 388.392 406.679 388.191 407.497 388.191C407.969 388.191 408.435 388.27 408.896 388.427C409.356 388.585 409.775 388.841 410.153 389.195C410.53 389.545 410.831 390.009 411.056 390.587C411.28 391.166 411.392 391.878 411.392 392.724V393.314H404.405V392.11H409.976C409.976 391.599 409.873 391.142 409.669 390.741C409.468 390.34 409.181 390.023 408.807 389.791C408.437 389.559 408.001 389.443 407.497 389.443C406.942 389.443 406.462 389.58 406.057 389.856C405.656 390.127 405.347 390.481 405.131 390.918C404.914 391.355 404.806 391.823 404.806 392.322V393.125C404.806 393.81 404.924 394.39 405.16 394.866C405.4 395.338 405.732 395.698 406.157 395.946C406.582 396.19 407.076 396.312 407.639 396.312C408.005 396.312 408.335 396.261 408.63 396.158C408.929 396.052 409.187 395.895 409.403 395.686C409.62 395.474 409.787 395.21 409.905 394.896L411.25 395.273C411.109 395.73 410.871 396.131 410.536 396.477C410.202 396.819 409.789 397.087 409.297 397.28C408.805 397.469 408.252 397.563 407.639 397.563Z" fill="#317AE2"></path>
  <path d="M413.511 397.374V388.309H414.856V389.726H414.974C415.163 389.242 415.468 388.866 415.889 388.599C416.31 388.327 416.816 388.191 417.406 388.191C418.004 388.191 418.501 388.327 418.899 388.599C419.3 388.866 419.613 389.242 419.837 389.726H419.932C420.164 389.258 420.512 388.886 420.976 388.61C421.44 388.331 421.997 388.191 422.646 388.191C423.457 388.191 424.12 388.445 424.635 388.953C425.15 389.456 425.408 390.241 425.408 391.307V397.374H424.015V391.307C424.015 390.639 423.832 390.161 423.467 389.873C423.101 389.586 422.67 389.443 422.174 389.443C421.537 389.443 421.043 389.635 420.693 390.021C420.343 390.403 420.168 390.886 420.168 391.473V397.374H418.751V391.166C418.751 390.65 418.584 390.235 418.25 389.921C417.915 389.602 417.484 389.443 416.957 389.443C416.595 389.443 416.257 389.539 415.942 389.732C415.631 389.924 415.38 390.192 415.187 390.534C414.998 390.873 414.903 391.264 414.903 391.709V397.374H413.511Z" fill="#317AE2"></path>
  <path d="M430.622 397.587C430.048 397.587 429.526 397.478 429.058 397.262C428.59 397.042 428.218 396.725 427.943 396.312C427.667 395.895 427.53 395.391 427.53 394.801C427.53 394.282 427.632 393.861 427.837 393.538C428.041 393.212 428.315 392.956 428.657 392.771C428.999 392.586 429.377 392.448 429.79 392.358C430.207 392.263 430.626 392.189 431.047 392.134C431.598 392.063 432.044 392.01 432.387 391.974C432.733 391.935 432.985 391.87 433.142 391.78C433.303 391.689 433.384 391.532 433.384 391.307V391.26C433.384 390.678 433.225 390.225 432.906 389.903C432.591 389.58 432.113 389.419 431.472 389.419C430.807 389.419 430.286 389.564 429.908 389.856C429.53 390.147 429.265 390.458 429.111 390.788L427.789 390.316C428.025 389.765 428.34 389.336 428.734 389.029C429.131 388.719 429.564 388.502 430.032 388.38C430.504 388.254 430.968 388.191 431.425 388.191C431.716 388.191 432.05 388.227 432.428 388.298C432.81 388.365 433.178 388.504 433.532 388.717C433.89 388.929 434.187 389.25 434.423 389.679C434.659 390.107 434.777 390.682 434.777 391.402V397.374H433.384V396.147H433.313C433.219 396.343 433.061 396.554 432.841 396.778C432.621 397.002 432.328 397.193 431.962 397.351C431.596 397.508 431.149 397.587 430.622 397.587ZM430.835 396.336C431.385 396.336 431.85 396.227 432.227 396.011C432.609 395.795 432.896 395.515 433.089 395.173C433.286 394.831 433.384 394.471 433.384 394.093V392.818C433.325 392.889 433.195 392.954 432.995 393.013C432.798 393.068 432.57 393.117 432.31 393.16C432.054 393.2 431.804 393.235 431.561 393.267C431.321 393.294 431.126 393.318 430.976 393.338C430.614 393.385 430.276 393.461 429.961 393.568C429.65 393.67 429.399 393.825 429.206 394.034C429.017 394.239 428.923 394.518 428.923 394.872C428.923 395.356 429.102 395.722 429.46 395.97C429.822 396.214 430.28 396.336 430.835 396.336Z" fill="#317AE2"></path>
  <path d="M437.319 397.374V388.309H438.712V397.374H437.319ZM438.027 386.799C437.756 386.799 437.522 386.706 437.325 386.521C437.132 386.336 437.036 386.114 437.036 385.854C437.036 385.595 437.132 385.372 437.325 385.188C437.522 385.003 437.756 384.91 438.027 384.91C438.299 384.91 438.531 385.003 438.723 385.188C438.92 385.372 439.019 385.595 439.019 385.854C439.019 386.114 438.92 386.336 438.723 386.521C438.531 386.706 438.299 386.799 438.027 386.799Z" fill="#317AE2"></path>
  <path d="M442.655 385.288V397.374H441.263V385.288H442.655Z" fill="#317AE2"></path>
  <path d="M444.947 397.374V396.312L450.093 389.702V389.608H445.112V388.309H451.887V389.419L446.882 395.981V396.076H452.052V397.374H444.947Z" fill="#317AE2"></path>
  <path d="M455.212 397.469C454.921 397.469 454.671 397.364 454.463 397.156C454.254 396.947 454.15 396.697 454.15 396.406C454.15 396.115 454.254 395.865 454.463 395.657C454.671 395.448 454.921 395.344 455.212 395.344C455.504 395.344 455.753 395.448 455.962 395.657C456.17 395.865 456.275 396.115 456.275 396.406C456.275 396.599 456.225 396.776 456.127 396.937C456.033 397.099 455.905 397.229 455.743 397.327C455.586 397.421 455.409 397.469 455.212 397.469Z" fill="#317AE2"></path>
  <path d="M462.456 397.563C461.607 397.563 460.875 397.362 460.261 396.961C459.647 396.56 459.175 396.007 458.845 395.303C458.514 394.598 458.349 393.794 458.349 392.889C458.349 391.968 458.518 391.156 458.857 390.452C459.199 389.744 459.675 389.191 460.285 388.793C460.898 388.392 461.615 388.191 462.433 388.191C463.07 388.191 463.645 388.309 464.156 388.545C464.668 388.782 465.087 389.112 465.413 389.537C465.74 389.962 465.942 390.458 466.021 391.024H464.628C464.522 390.611 464.286 390.245 463.92 389.926C463.558 389.604 463.07 389.443 462.456 389.443C461.914 389.443 461.437 389.584 461.028 389.867C460.623 390.147 460.306 390.542 460.078 391.054C459.854 391.561 459.742 392.157 459.742 392.842C459.742 393.542 459.852 394.152 460.072 394.671C460.297 395.191 460.611 395.594 461.017 395.881C461.426 396.168 461.906 396.312 462.456 396.312C462.818 396.312 463.147 396.249 463.442 396.123C463.737 395.997 463.987 395.816 464.192 395.58C464.396 395.344 464.542 395.061 464.628 394.73H466.021C465.942 395.265 465.748 395.747 465.437 396.176C465.13 396.601 464.723 396.939 464.215 397.191C463.712 397.439 463.125 397.563 462.456 397.563Z" fill="#317AE2"></path>
  <path d="M471.74 397.563C470.921 397.563 470.203 397.368 469.586 396.979C468.972 396.589 468.492 396.044 468.146 395.344C467.803 394.644 467.632 393.825 467.632 392.889C467.632 391.945 467.803 391.121 468.146 390.416C468.492 389.712 468.972 389.165 469.586 388.776C470.203 388.386 470.921 388.191 471.74 388.191C472.558 388.191 473.274 388.386 473.888 388.776C474.505 389.165 474.985 389.712 475.328 390.416C475.674 391.121 475.847 391.945 475.847 392.889C475.847 393.825 475.674 394.644 475.328 395.344C474.985 396.044 474.505 396.589 473.888 396.979C473.274 397.368 472.558 397.563 471.74 397.563ZM471.74 396.312C472.361 396.312 472.873 396.153 473.274 395.834C473.675 395.515 473.972 395.096 474.165 394.577C474.358 394.058 474.454 393.495 474.454 392.889C474.454 392.283 474.358 391.719 474.165 391.195C473.972 390.672 473.675 390.249 473.274 389.926C472.873 389.604 472.361 389.443 471.74 389.443C471.118 389.443 470.606 389.604 470.205 389.926C469.804 390.249 469.507 390.672 469.314 391.195C469.121 391.719 469.025 392.283 469.025 392.889C469.025 393.495 469.121 394.058 469.314 394.577C469.507 395.096 469.804 395.515 470.205 395.834C470.606 396.153 471.118 396.312 471.74 396.312Z" fill="#317AE2"></path>
  <path d="M477.973 397.374V388.309H479.319V389.726H479.437C479.626 389.242 479.93 388.866 480.351 388.599C480.772 388.327 481.278 388.191 481.868 388.191C482.466 388.191 482.964 388.327 483.361 388.599C483.762 388.866 484.075 389.242 484.3 389.726H484.394C484.626 389.258 484.974 388.886 485.439 388.61C485.903 388.331 486.459 388.191 487.109 388.191C487.919 388.191 488.582 388.445 489.097 388.953C489.613 389.456 489.871 390.241 489.871 391.307V397.374H488.478V391.307C488.478 390.639 488.295 390.161 487.929 389.873C487.563 389.586 487.132 389.443 486.637 389.443C485.999 389.443 485.505 389.635 485.155 390.021C484.805 390.403 484.63 390.886 484.63 391.473V397.374H483.214V391.166C483.214 390.65 483.046 390.235 482.712 389.921C482.378 389.602 481.947 389.443 481.42 389.443C481.058 389.443 480.719 389.539 480.405 389.732C480.094 389.924 479.842 390.192 479.649 390.534C479.46 390.873 479.366 391.264 479.366 391.709V397.374H477.973Z" fill="#317AE2"></path>
  <path d="M311.073 308.729C310.92 308.233 310.708 307.79 310.439 307.398C310.176 307 309.858 306.66 309.484 306.379C309.117 306.097 308.695 305.886 308.218 305.746C307.74 305.599 307.22 305.525 306.657 305.525C305.647 305.525 304.747 305.779 303.958 306.287C303.168 306.795 302.547 307.542 302.094 308.527C301.648 309.506 301.424 310.7 301.424 312.107C301.424 313.527 301.648 314.73 302.094 315.715C302.541 316.7 303.162 317.45 303.958 317.964C304.754 318.472 305.678 318.726 306.73 318.726C307.685 318.726 308.511 318.543 309.209 318.175C309.913 317.808 310.454 317.288 310.834 316.615C311.213 315.935 311.403 315.14 311.403 314.228L312.174 314.347H307.07V311.685H314.699V313.943C314.699 315.553 314.356 316.945 313.671 318.12C312.985 319.295 312.043 320.201 310.843 320.838C309.643 321.468 308.266 321.783 306.712 321.783C304.98 321.783 303.459 321.395 302.149 320.617C300.846 319.834 299.827 318.723 299.092 317.285C298.364 315.841 298 314.127 298 312.144C298 310.626 298.214 309.271 298.643 308.077C299.077 306.884 299.683 305.871 300.46 305.039C301.238 304.2 302.149 303.564 303.196 303.129C304.243 302.689 305.381 302.468 306.611 302.468C307.651 302.468 308.621 302.621 309.521 302.927C310.421 303.227 311.219 303.655 311.917 304.212C312.621 304.769 313.199 305.43 313.652 306.195C314.105 306.96 314.402 307.805 314.543 308.729H311.073Z" fill="#262647"></path>
  <path d="M321.168 302.725V321.526H317.845V302.725H321.168Z" fill="#262647"></path>
  <path d="M330.736 321.802C329.359 321.802 328.166 321.499 327.156 320.893C326.146 320.287 325.363 319.439 324.806 318.35C324.255 317.26 323.98 315.988 323.98 314.531C323.98 313.074 324.255 311.798 324.806 310.703C325.363 309.607 326.146 308.757 327.156 308.151C328.166 307.545 329.359 307.242 330.736 307.242C332.113 307.242 333.307 307.545 334.317 308.151C335.327 308.757 336.107 309.607 336.658 310.703C337.215 311.798 337.493 313.074 337.493 314.531C337.493 315.988 337.215 317.26 336.658 318.35C336.107 319.439 335.327 320.287 334.317 320.893C333.307 321.499 332.113 321.802 330.736 321.802ZM330.755 319.139C331.501 319.139 332.126 318.934 332.628 318.524C333.129 318.108 333.503 317.551 333.748 316.854C333.998 316.156 334.124 315.379 334.124 314.522C334.124 313.659 333.998 312.878 333.748 312.181C333.503 311.477 333.129 310.917 332.628 310.501C332.126 310.085 331.501 309.877 330.755 309.877C329.99 309.877 329.353 310.085 328.845 310.501C328.343 310.917 327.967 311.477 327.716 312.181C327.471 312.878 327.349 313.659 327.349 314.522C327.349 315.379 327.471 316.156 327.716 316.854C327.967 317.551 328.343 318.108 328.845 318.524C329.353 318.934 329.99 319.139 330.755 319.139Z" fill="#262647"></path>
  <path d="M340.314 321.526V307.425H343.536V309.776H343.683C343.94 308.962 344.38 308.334 345.005 307.894C345.635 307.447 346.354 307.224 347.162 307.224C347.346 307.224 347.551 307.233 347.777 307.251C348.01 307.263 348.202 307.285 348.355 307.315V310.372C348.215 310.323 347.991 310.281 347.685 310.244C347.385 310.201 347.095 310.18 346.813 310.18C346.207 310.18 345.663 310.311 345.179 310.574C344.702 310.831 344.325 311.189 344.05 311.648C343.775 312.107 343.637 312.637 343.637 313.237V321.526H340.314Z" fill="#262647"></path>
  <path d="M350.563 321.526V307.425H353.886V321.526H350.563ZM352.234 305.424C351.708 305.424 351.255 305.25 350.875 304.901C350.496 304.546 350.306 304.121 350.306 303.625C350.306 303.123 350.496 302.698 350.875 302.349C351.255 301.994 351.708 301.816 352.234 301.816C352.767 301.816 353.219 301.994 353.593 302.349C353.972 302.698 354.162 303.123 354.162 303.625C354.162 304.121 353.972 304.546 353.593 304.901C353.219 305.25 352.767 305.424 352.234 305.424Z" fill="#262647"></path>
  <path d="M361.361 321.811C360.468 321.811 359.663 321.652 358.947 321.333C358.237 321.009 357.674 320.532 357.258 319.901C356.848 319.271 356.643 318.494 356.643 317.57C356.643 316.774 356.79 316.116 357.083 315.596C357.377 315.076 357.778 314.659 358.286 314.347C358.794 314.035 359.366 313.8 360.003 313.64C360.645 313.475 361.309 313.356 361.995 313.282C362.821 313.197 363.491 313.12 364.005 313.053C364.519 312.979 364.893 312.869 365.125 312.722C365.364 312.569 365.483 312.334 365.483 312.016V311.96C365.483 311.269 365.278 310.733 364.868 310.354C364.458 309.975 363.868 309.785 363.096 309.785C362.283 309.785 361.637 309.962 361.159 310.317C360.688 310.672 360.37 311.091 360.205 311.575L357.102 311.134C357.347 310.277 357.751 309.561 358.314 308.986C358.877 308.405 359.565 307.97 360.379 307.683C361.193 307.389 362.093 307.242 363.078 307.242C363.757 307.242 364.434 307.321 365.107 307.481C365.78 307.64 366.395 307.903 366.952 308.27C367.509 308.631 367.956 309.124 368.292 309.748C368.635 310.372 368.807 311.153 368.807 312.089V321.526H365.612V319.589H365.502C365.3 319.981 365.015 320.348 364.648 320.691C364.287 321.027 363.831 321.3 363.28 321.508C362.735 321.71 362.096 321.811 361.361 321.811ZM362.224 319.369C362.891 319.369 363.47 319.237 363.959 318.974C364.449 318.705 364.825 318.35 365.089 317.909C365.358 317.469 365.493 316.988 365.493 316.468V314.806C365.388 314.892 365.211 314.972 364.96 315.045C364.715 315.118 364.44 315.183 364.134 315.238C363.828 315.293 363.525 315.342 363.225 315.385C362.925 315.428 362.665 315.464 362.445 315.495C361.949 315.562 361.505 315.672 361.114 315.825C360.722 315.978 360.413 316.193 360.186 316.468C359.96 316.737 359.847 317.086 359.847 317.514C359.847 318.126 360.07 318.589 360.517 318.901C360.964 319.213 361.533 319.369 362.224 319.369Z" fill="#262647"></path>
  <path d="M385.712 315.21H388.796L390.623 317.579L391.927 319.121L395.057 323.142H391.752L389.623 320.443L388.714 319.158L385.712 315.21ZM395.507 312.126C395.507 314.151 395.128 315.887 394.369 317.331C393.616 318.769 392.588 319.871 391.284 320.636C389.987 321.401 388.515 321.783 386.868 321.783C385.222 321.783 383.747 321.401 382.444 320.636C381.146 319.865 380.118 318.76 379.359 317.322C378.606 315.877 378.23 314.145 378.23 312.126C378.23 310.1 378.606 308.368 379.359 306.93C380.118 305.485 381.146 304.381 382.444 303.616C383.747 302.851 385.222 302.468 386.868 302.468C388.515 302.468 389.987 302.851 391.284 303.616C392.588 304.381 393.616 305.485 394.369 306.93C395.128 308.368 395.507 310.1 395.507 312.126ZM392.083 312.126C392.083 310.7 391.859 309.497 391.413 308.518C390.972 307.533 390.36 306.789 389.577 306.287C388.793 305.779 387.891 305.525 386.868 305.525C385.846 305.525 384.944 305.779 384.16 306.287C383.377 306.789 382.762 307.533 382.315 308.518C381.874 309.497 381.654 310.7 381.654 312.126C381.654 313.552 381.874 314.757 382.315 315.743C382.762 316.722 383.377 317.466 384.16 317.973C384.944 318.475 385.846 318.726 386.868 318.726C387.891 318.726 388.793 318.475 389.577 317.973C390.36 317.466 390.972 316.722 391.413 315.743C391.859 314.757 392.083 313.552 392.083 312.126Z" fill="#262647"></path>
  <path d="M407.593 315.596V307.425H410.916V321.526H407.694V319.02H407.547C407.229 319.81 406.705 320.455 405.977 320.957C405.255 321.459 404.364 321.71 403.306 321.71C402.381 321.71 401.564 321.505 400.854 321.095C400.151 320.679 399.6 320.076 399.202 319.286C398.804 318.491 398.605 317.53 398.605 316.404V307.425H401.929V315.89C401.929 316.783 402.173 317.493 402.663 318.019C403.153 318.546 403.795 318.809 404.591 318.809C405.08 318.809 405.555 318.69 406.014 318.451C406.473 318.212 406.849 317.857 407.143 317.386C407.443 316.909 407.593 316.312 407.593 315.596Z" fill="#262647"></path>
  <path d="M414.333 321.526V307.425H417.656V321.526H414.333ZM416.004 305.424C415.478 305.424 415.025 305.25 414.645 304.901C414.266 304.546 414.076 304.121 414.076 303.625C414.076 303.123 414.266 302.698 414.645 302.349C415.025 301.994 415.478 301.816 416.004 301.816C416.536 301.816 416.989 301.994 417.363 302.349C417.742 302.698 417.932 303.123 417.932 303.625C417.932 304.121 417.742 304.546 417.363 304.901C416.989 305.25 416.536 305.424 416.004 305.424Z" fill="#262647"></path>
  <path d="M424.397 313.264V321.526H421.074V307.425H424.25V309.822H424.415C424.74 309.032 425.257 308.405 425.967 307.94C426.683 307.474 427.567 307.242 428.62 307.242C429.593 307.242 430.441 307.45 431.163 307.866C431.891 308.282 432.454 308.885 432.852 309.675C433.256 310.464 433.455 311.422 433.449 312.548V321.526H430.125V313.062C430.125 312.12 429.881 311.382 429.391 310.85C428.908 310.317 428.237 310.051 427.381 310.051C426.799 310.051 426.282 310.18 425.829 310.437C425.382 310.687 425.03 311.052 424.773 311.529C424.522 312.006 424.397 312.585 424.397 313.264Z" fill="#262647"></path>
  <path d="M440.15 313.264V321.526H436.827V307.425H440.003V309.822H440.168C440.493 309.032 441.01 308.405 441.72 307.94C442.436 307.474 443.32 307.242 444.373 307.242C445.346 307.242 446.194 307.45 446.916 307.866C447.644 308.282 448.207 308.885 448.605 309.675C449.009 310.464 449.208 311.422 449.202 312.548V321.526H445.879V313.062C445.879 312.12 445.634 311.382 445.144 310.85C444.661 310.317 443.991 310.051 443.134 310.051C442.552 310.051 442.035 310.18 441.582 310.437C441.135 310.687 440.784 311.052 440.527 311.529C440.276 312.006 440.15 312.585 440.15 313.264Z" fill="#262647"></path>
  <g clip-path="url(#clip1_4672_27922)">
    <rect x="90.7344" y="287.969" width="127.41" height="127.41" rx="63.705" fill="#6861F2"></rect>
    <path d="M129.861 307.223C119.78 317.224 129.121 337.817 122.76 343.185C111.514 352.676 112.453 368.839 112.453 368.839H172.466C172.466 368.839 181.17 364.192 181.17 352.03C181.17 339.819 175.443 334.325 175.443 325.778C175.443 308.502 166.739 300.123 159.409 298.749C154.705 297.867 147.04 297.604 143.834 300.811C143.834 300.811 136.53 300.606 129.861 307.223Z" fill="#030A0F"></path>
    <mask id="mask0_4672_27922" style="mask-type:alpha" maskUnits="userSpaceOnUse" x="90" y="362" width="154" height="105">
      <path d="M90.7383 466.296V403.969C90.7383 381.211 109.187 362.762 131.945 362.762L173.168 362.762C190.051 362.762 205.261 373.028 211.671 388.749L243.29 466.296L90.7383 466.296Z" fill="#4A8AE6"></path>
    </mask>
    <g mask="url(#mask0_4672_27922)">
      <rect x="86.1562" y="356.34" width="159.424" height="109.947" fill="#6861F2"></rect>
      <rect x="86.1562" y="411.312" width="159.424" height="4.58116" fill="white"></rect>
      <rect x="86.1562" y="383.828" width="159.424" height="4.58115" fill="white"></rect>
      <rect x="86.1562" y="365.504" width="159.424" height="4.58114" fill="white"></rect>
      <rect x="86.1562" y="392.988" width="159.424" height="4.58114" fill="white"></rect>
      <rect x="86.1562" y="374.668" width="159.424" height="4.58114" fill="white"></rect>
      <rect x="86.1562" y="402.152" width="159.424" height="4.58116" fill="white"></rect>
    </g>
    <path d="M169.055 336.927V338.599C169.055 345.906 164.776 352.213 158.588 355.153V366.728C158.588 371.064 155.073 374.578 150.738 374.578C146.402 374.578 142.888 371.064 142.888 366.728V355.153C136.699 352.213 132.421 345.906 132.421 338.599L132.421 336.927C129.531 336.927 127.188 334.584 127.188 331.694C127.188 328.804 129.492 326.525 132.382 326.525C132.404 324.698 133.904 323.25 135.717 323.016C142.689 322.115 150.707 318.126 150.707 309.055L160.989 312.52C165.809 314.145 169.055 318.133 169.055 323.219V326.461C171.945 326.461 174.288 328.804 174.288 331.694C174.288 334.584 171.945 336.927 169.055 336.927Z" fill="#F9D8B8"></path>
    <ellipse cx="141.426" cy="327.626" rx="1.4341" ry="1.4341" fill="#030A0F"></ellipse>
    <ellipse cx="159.59" cy="327.622" rx="1.43409" ry="1.4341" fill="#030A0F"></ellipse>
    <path d="M155.682 344.214C155.682 344.214 153.688 347.343 150.804 347.691C147.921 348.038 145.241 345.473 145.241 345.473C145.241 345.473 147.349 343.292 150.232 342.945C153.116 342.597 155.682 344.214 155.682 344.214Z" fill="#A95B29"></path>
    <path d="M130.753 329.162C129.994 329.162 129.379 330.085 129.379 331.224C129.379 332.362 129.994 333.285 130.753 333.285" stroke="#D69763" stroke-width="0.711079" stroke-linecap="round"></path>
    <path d="M170.149 329.162C170.908 329.162 171.523 330.085 171.523 331.224C171.523 332.362 170.908 333.285 170.149 333.285" stroke="#D69763" stroke-width="0.711079" stroke-linecap="round"></path>
    <path d="M167.891 322.552C167.619 322.081 167.78 321.479 168.251 321.207L172.355 318.837C172.826 318.565 173.429 318.727 173.701 319.198C173.973 319.669 173.811 320.272 173.34 320.544L169.236 322.913C168.765 323.185 168.163 323.023 167.891 322.552Z" fill="white"></path>
  </g>
  <path d="M260.741 390.275L264.935 393.072C265.068 393.16 265.241 393.16 265.373 393.072L269.568 390.275C269.84 390.094 270.208 390.167 270.39 390.44C270.572 390.712 270.498 391.08 270.226 391.262L265.702 394.277C265.37 394.499 264.938 394.499 264.606 394.277L260.083 391.262C259.81 391.08 259.737 390.712 259.918 390.44C260.1 390.167 260.468 390.094 260.741 390.275Z" fill="#192435"></path>
  <path d="M257.25 389.188C257.25 387.878 258.312 386.816 259.621 386.816H270.687C271.997 386.816 273.059 387.878 273.059 389.188V397.092C273.059 398.402 271.997 399.463 270.687 399.463H259.621C258.312 399.463 257.25 398.402 257.25 397.092V389.188ZM259.621 388.002C258.966 388.002 258.436 388.533 258.436 389.188V397.092C258.436 397.747 258.966 398.278 259.621 398.278H270.687C271.342 398.278 271.873 397.747 271.873 397.092V389.188C271.873 388.533 271.342 388.002 270.687 388.002H259.621Z" fill="#192435"></path>
  <path d="M261.635 362.624C262.827 363.816 264.749 365.503 266.724 366.473C268.733 367.46 270.329 367.512 271.47 366.343L271.475 366.338L271.48 366.334C272.049 365.764 272.344 365.388 272.44 365.108C272.475 365.007 272.469 364.958 272.459 364.921C272.447 364.873 272.398 364.743 272.19 364.535C271.857 364.202 271.19 363.731 270.524 363.303C270.149 363.063 269.768 362.83 269.383 362.607C269.298 362.558 269.22 362.486 269.116 362.492C269.044 362.497 268.938 362.527 268.823 362.609L268.807 362.62L267.631 363.405C267.358 363.604 267.005 363.777 266.577 363.777C266.186 363.777 265.882 363.62 265.804 363.579C265.756 363.555 265.71 363.526 265.664 363.499C264.901 362.99 264.128 362.39 263.354 361.615C262.409 360.67 261.807 359.81 261.47 359.303L261.396 359.176C261.395 359.173 261.392 359.169 261.39 359.164C261.349 359.085 261.192 358.782 261.192 358.39C261.192 357.962 261.365 357.609 261.564 357.335L261.864 356.885C261.872 356.873 261.881 356.86 261.889 356.847C262.009 356.667 262.189 356.396 262.396 356.168C262.46 356.064 262.474 355.994 262.477 355.956C262.479 355.921 262.477 355.849 262.398 355.722C262.148 355.322 261.934 354.903 261.67 354.498C261.248 353.849 260.773 353.193 260.434 352.854L260.402 352.822L260.373 352.787C260.25 352.644 260.17 352.611 260.14 352.601C259.534 352.406 258.981 353.205 258.626 353.575C257.67 354.569 257.603 356.046 258.408 357.961C259.191 359.825 260.604 361.63 261.619 362.609L261.635 362.624ZM263.322 356.91C263.322 356.91 263.007 357.305 262.849 357.542L262.534 358.015C262.297 358.331 262.376 358.489 262.455 358.647C262.77 359.12 263.322 359.91 264.19 360.778C264.9 361.488 265.61 362.041 266.321 362.514C266.478 362.593 266.636 362.672 266.952 362.435L268.135 361.646C268.687 361.251 269.397 361.172 269.95 361.567C269.95 361.567 272.159 362.83 273.027 363.698C274.289 364.961 273.421 366.066 272.317 367.171C268.924 370.644 263.244 365.908 260.798 363.461C258.589 361.33 254.723 355.726 257.8 352.727C258.51 351.938 259.062 351.543 259.614 351.464C260.246 351.306 260.798 351.464 261.271 352.017C262.139 352.885 263.401 355.016 263.401 355.095C263.796 355.726 263.717 356.358 263.322 356.91Z" fill="#192435"></path>
  <path d="M262.924 307.677C262.924 306.403 263.957 305.369 265.232 305.369C266.507 305.369 267.54 306.403 267.54 307.677C267.54 308.952 266.507 309.986 265.232 309.986C263.957 309.986 262.924 308.952 262.924 307.677ZM265.232 303.984C263.192 303.984 261.539 305.638 261.539 307.677C261.539 309.717 263.192 311.37 265.232 311.37C267.272 311.37 268.925 309.717 268.925 307.677C268.925 305.638 267.272 303.984 265.232 303.984ZM259.055 319.081C259.46 316.032 262.072 313.679 265.232 313.679C268.392 313.679 271.004 316.032 271.409 319.081C271.413 319.11 271.407 319.134 271.381 319.16C271.352 319.191 271.3 319.218 271.233 319.218H259.231C259.164 319.218 259.112 319.191 259.083 319.16C259.057 319.134 259.051 319.11 259.055 319.081ZM265.232 312.294C261.368 312.294 258.177 315.17 257.682 318.898C257.551 319.881 258.367 320.603 259.231 320.603H271.233C272.097 320.603 272.913 319.881 272.782 318.898C272.287 315.17 269.096 312.294 265.232 312.294Z" fill="#192435"></path>
  <defs>
    <clipPath id="clip0_4672_27922">
      <rect x="90.7344" y="87.6211" width="127.41" height="127.41" rx="63.705" fill="white"></rect>
    </clipPath>
    <clipPath id="clip1_4672_27922">
      <rect x="90.7344" y="287.969" width="127.41" height="127.41" rx="63.705" fill="white"></rect>
    </clipPath>
  </defs>
</svg>
